<svg width="135" height="119" viewBox="0 0 135 119" fill="none" xmlns="http://www.w3.org/2000/svg">
<g filter="url(#filter0_d_215_156)">
<rect x="9.43439" y="7.99185" width="115.925" height="101.171" rx="1.31733" fill="white"/>
</g>
<path d="M15.7512 15.6133C15.824 15.7398 15.9014 15.852 15.9836 15.95C16.069 16.0449 16.1622 16.1192 16.2634 16.1729C16.3646 16.2235 16.4784 16.2488 16.6049 16.2488C16.7566 16.2488 16.8799 16.2077 16.9748 16.1255C17.0696 16.0433 17.117 15.9374 17.117 15.8078C17.117 15.6845 17.087 15.5864 17.0269 15.5137C16.9669 15.4379 16.8831 15.3746 16.7756 15.324C16.6713 15.2703 16.5495 15.2181 16.4104 15.1675C16.3282 15.1391 16.2365 15.1011 16.1354 15.0537C16.0342 15.0031 15.9378 14.9415 15.8461 14.8688C15.7544 14.7929 15.6785 14.7012 15.6184 14.5937C15.5584 14.4831 15.5283 14.3503 15.5283 14.1953C15.5283 14.0183 15.5742 13.8634 15.6659 13.7306C15.7576 13.5946 15.8809 13.4903 16.0358 13.4176C16.1939 13.3417 16.3725 13.3038 16.5717 13.3038C16.7677 13.3038 16.9384 13.3386 17.0838 13.4081C17.2293 13.4777 17.351 13.5662 17.449 13.6737C17.5502 13.7812 17.6292 13.8934 17.6861 14.0104L17.2309 14.2665C17.1898 14.1843 17.1376 14.1084 17.0744 14.0388C17.0111 13.9661 16.9368 13.9092 16.8515 13.8681C16.7693 13.8239 16.6728 13.8017 16.5622 13.8017C16.4073 13.8017 16.2934 13.8381 16.2207 13.9108C16.148 13.9804 16.1117 14.0626 16.1117 14.1574C16.1117 14.2428 16.1369 14.3202 16.1875 14.3898C16.2413 14.4562 16.3235 14.5194 16.4341 14.5795C16.5448 14.6396 16.6886 14.7012 16.8657 14.7644C16.9637 14.7992 17.0617 14.8435 17.1597 14.8972C17.2609 14.951 17.3526 15.0189 17.4348 15.1011C17.517 15.1802 17.5818 15.2735 17.6292 15.3809C17.6798 15.4884 17.7051 15.6149 17.7051 15.7603C17.7051 15.9153 17.6751 16.0544 17.615 16.1777C17.5549 16.301 17.4727 16.4053 17.3684 16.4907C17.2641 16.5729 17.1455 16.6361 17.0127 16.6804C16.8831 16.7278 16.7471 16.7515 16.6049 16.7515C16.4088 16.7515 16.2271 16.7136 16.0595 16.6377C15.8951 16.5586 15.7512 16.4543 15.6279 16.3247C15.5046 16.1951 15.4066 16.0544 15.3339 15.9026L15.7512 15.6133ZM17.9332 14.4989H19.171V14.9494H17.9332V14.4989ZM18.2984 13.7401H18.8058V16.6804H18.2984V13.7401ZM19.8467 16.0022C19.8467 16.0749 19.8641 16.1381 19.8989 16.1919C19.9336 16.2425 19.9811 16.2804 20.0411 16.3057C20.1044 16.331 20.1755 16.3436 20.2545 16.3436C20.3557 16.3436 20.4474 16.3231 20.5296 16.282C20.615 16.2409 20.6829 16.1808 20.7335 16.1018C20.7873 16.0196 20.8141 15.9247 20.8141 15.8172L20.89 16.1018C20.89 16.2409 20.8489 16.3579 20.7667 16.4527C20.6877 16.5444 20.5865 16.614 20.4632 16.6614C20.3431 16.7057 20.2198 16.7278 20.0933 16.7278C19.9573 16.7278 19.8309 16.7009 19.7139 16.6472C19.5969 16.5934 19.5037 16.5144 19.4341 16.41C19.3646 16.3057 19.3298 16.1792 19.3298 16.0307C19.3298 15.8188 19.4041 15.6513 19.5527 15.528C19.7013 15.4015 19.9115 15.3383 20.1834 15.3383C20.3288 15.3383 20.4537 15.3541 20.5581 15.3857C20.6655 15.4173 20.7541 15.4552 20.8236 15.4995C20.8932 15.5406 20.9422 15.5785 20.9706 15.6133V15.8742C20.8726 15.8046 20.7683 15.754 20.6576 15.7224C20.547 15.6908 20.43 15.675 20.3067 15.675C20.1992 15.675 20.1123 15.6892 20.0459 15.7177C19.9795 15.7429 19.9289 15.7793 19.8941 15.8267C19.8625 15.8742 19.8467 15.9326 19.8467 16.0022ZM19.6855 15.0679L19.4768 14.7075C19.5748 14.6475 19.7013 14.589 19.8562 14.5321C20.0143 14.4751 20.1945 14.4467 20.3968 14.4467C20.577 14.4467 20.7351 14.4736 20.871 14.5273C21.0102 14.5811 21.1192 14.6585 21.1983 14.7597C21.2773 14.8577 21.3168 14.9794 21.3168 15.1249V16.6804H20.8141V15.2244C20.8141 15.1549 20.8015 15.098 20.7762 15.0537C20.7541 15.0095 20.7225 14.9731 20.6814 14.9446C20.6403 14.9162 20.5912 14.8956 20.5343 14.883C20.4774 14.8703 20.4158 14.864 20.3494 14.864C20.2482 14.864 20.1518 14.8767 20.0601 14.902C19.9716 14.9241 19.8941 14.9525 19.8277 14.9873C19.7645 15.0189 19.7171 15.0458 19.6855 15.0679ZM21.6104 14.4989H22.8482V14.9494H21.6104V14.4989ZM21.9756 13.7401H22.483V16.6804H21.9756V13.7401ZM23.1824 13.631C23.1824 13.5425 23.2141 13.4682 23.2773 13.4081C23.3437 13.348 23.4196 13.318 23.5049 13.318C23.5966 13.318 23.6725 13.348 23.7326 13.4081C23.7958 13.4682 23.8274 13.5425 23.8274 13.631C23.8274 13.7164 23.7958 13.7907 23.7326 13.8539C23.6725 13.914 23.5966 13.944 23.5049 13.944C23.4196 13.944 23.3437 13.914 23.2773 13.8539C23.2141 13.7907 23.1824 13.7164 23.1824 13.631ZM23.2536 14.4989H23.7563V16.6804H23.2536V14.4989ZM24.5607 15.9643C24.6303 16.0401 24.6998 16.1065 24.7694 16.1634C24.8421 16.2172 24.9148 16.2583 24.9875 16.2867C25.0602 16.312 25.1329 16.3247 25.2057 16.3247C25.2974 16.3247 25.3685 16.3041 25.4191 16.263C25.4728 16.2219 25.4997 16.165 25.4997 16.0923C25.4997 16.0291 25.4791 15.9753 25.438 15.9311C25.3969 15.8836 25.34 15.8441 25.2673 15.8125C25.1946 15.7777 25.1092 15.7429 25.0112 15.7082C24.9132 15.6702 24.8152 15.626 24.7172 15.5754C24.6224 15.5216 24.5433 15.4521 24.4801 15.3667C24.42 15.2814 24.39 15.1739 24.39 15.0442C24.39 14.9114 24.4232 14.8008 24.4896 14.7123C24.5591 14.6237 24.6508 14.5589 24.7646 14.5178C24.8816 14.4736 25.0065 14.4514 25.1393 14.4514C25.2594 14.4514 25.3716 14.4688 25.476 14.5036C25.5835 14.5384 25.6799 14.5842 25.7653 14.6411C25.8506 14.698 25.9233 14.7629 25.9834 14.8356L25.6989 15.1391C25.6262 15.0537 25.5392 14.9842 25.438 14.9304C25.3369 14.8767 25.2325 14.8498 25.125 14.8498C25.0523 14.8498 24.9923 14.8656 24.9448 14.8972C24.8974 14.9288 24.8737 14.9747 24.8737 15.0348C24.8737 15.0853 24.8942 15.1312 24.9354 15.1723C24.9796 15.2102 25.0365 15.245 25.1061 15.2766C25.1788 15.3082 25.2594 15.3414 25.3479 15.3762C25.4681 15.4236 25.5787 15.4758 25.6799 15.5327C25.7811 15.5896 25.8617 15.6592 25.9218 15.7414C25.985 15.8236 26.0166 15.9311 26.0166 16.0638C26.0166 16.2694 25.9455 16.4353 25.8032 16.5618C25.6641 16.6851 25.4744 16.7468 25.2341 16.7468C25.0855 16.7468 24.948 16.7246 24.8215 16.6804C24.6982 16.6329 24.5892 16.5729 24.4943 16.5001C24.4026 16.4243 24.3252 16.3452 24.2619 16.263L24.5607 15.9643ZM26.1676 14.4989H27.4053V14.9494H26.1676V14.4989ZM26.5327 13.7401H27.0402V16.6804H26.5327V13.7401ZM27.7396 13.631C27.7396 13.5425 27.7712 13.4682 27.8344 13.4081C27.9008 13.348 27.9767 13.318 28.0621 13.318C28.1538 13.318 28.2296 13.348 28.2897 13.4081C28.3529 13.4682 28.3845 13.5425 28.3845 13.631C28.3845 13.7164 28.3529 13.7907 28.2897 13.8539C28.2296 13.914 28.1538 13.944 28.0621 13.944C27.9767 13.944 27.9008 13.914 27.8344 13.8539C27.7712 13.7907 27.7396 13.7164 27.7396 13.631ZM27.8107 14.4989H28.3134V16.6804H27.8107V14.4989ZM28.9993 12.9813H29.502V16.6804H28.9993V12.9813ZM30.3034 14.4989H30.9294L29.9904 15.3999L31.0243 16.6804H30.403L29.3597 15.3999L30.3034 14.4989ZM33.4473 14.6601L33.2196 16.6804H32.6411L33.0963 13.1947L34.4574 15.4473L35.8232 13.1947L36.2785 16.6804H35.6999L35.4675 14.6601L34.4574 16.3721L33.4473 14.6601ZM37.1027 16.0022C37.1027 16.0749 37.1201 16.1381 37.1549 16.1919C37.1896 16.2425 37.2371 16.2804 37.2971 16.3057C37.3604 16.331 37.4315 16.3436 37.5105 16.3436C37.6117 16.3436 37.7034 16.3231 37.7856 16.282C37.871 16.2409 37.9389 16.1808 37.9895 16.1018C38.0433 16.0196 38.0701 15.9247 38.0701 15.8172L38.146 16.1018C38.146 16.2409 38.1049 16.3579 38.0227 16.4527C37.9437 16.5444 37.8425 16.614 37.7192 16.6614C37.5991 16.7057 37.4758 16.7278 37.3493 16.7278C37.2133 16.7278 37.0869 16.7009 36.9699 16.6472C36.8529 16.5934 36.7597 16.5144 36.6901 16.41C36.6205 16.3057 36.5858 16.1792 36.5858 16.0307C36.5858 15.8188 36.6601 15.6513 36.8087 15.528C36.9573 15.4015 37.1675 15.3383 37.4394 15.3383C37.5848 15.3383 37.7097 15.3541 37.814 15.3857C37.9215 15.4173 38.0101 15.4552 38.0796 15.4995C38.1492 15.5406 38.1982 15.5785 38.2266 15.6133V15.8742C38.1286 15.8046 38.0243 15.754 37.9136 15.7224C37.803 15.6908 37.686 15.675 37.5627 15.675C37.4552 15.675 37.3683 15.6892 37.3019 15.7177C37.2355 15.7429 37.1849 15.7793 37.1501 15.8267C37.1185 15.8742 37.1027 15.9326 37.1027 16.0022ZM36.9414 15.0679L36.7328 14.7075C36.8308 14.6475 36.9573 14.589 37.1122 14.5321C37.2703 14.4751 37.4505 14.4467 37.6528 14.4467C37.833 14.4467 37.9911 14.4736 38.127 14.5273C38.2662 14.5811 38.3752 14.6585 38.4543 14.7597C38.5333 14.8577 38.5728 14.9794 38.5728 15.1249V16.6804H38.0701V15.2244C38.0701 15.1549 38.0575 15.098 38.0322 15.0537C38.0101 15.0095 37.9784 14.9731 37.9373 14.9446C37.8962 14.9162 37.8472 14.8956 37.7903 14.883C37.7334 14.8703 37.6718 14.864 37.6054 14.864C37.5042 14.864 37.4078 14.8767 37.3161 14.902C37.2276 14.9241 37.1501 14.9525 37.0837 14.9873C37.0205 15.0189 36.9731 15.0458 36.9414 15.0679ZM39.6821 12.9813V16.6804H39.1699V12.9813H39.6821ZM40.5737 15.3525C40.5737 15.1912 40.5405 15.0695 40.4741 14.9873C40.4109 14.9051 40.3081 14.864 40.1658 14.864C40.071 14.864 39.9872 14.8846 39.9145 14.9257C39.8418 14.9668 39.7849 15.0237 39.7438 15.0964C39.7027 15.1691 39.6821 15.2545 39.6821 15.3525H39.5588C39.5588 15.1786 39.5904 15.0237 39.6536 14.8877C39.7169 14.7518 39.8054 14.6427 39.9192 14.5605C40.0362 14.4783 40.1769 14.4372 40.3413 14.4372C40.5025 14.4372 40.6385 14.4688 40.7491 14.5321C40.863 14.5953 40.9483 14.6901 41.0052 14.8166C41.0621 14.9399 41.0906 15.0948 41.0906 15.2814V16.6804H40.5737V15.3525ZM42.0627 16.0022C42.0627 16.0749 42.0801 16.1381 42.1149 16.1919C42.1497 16.2425 42.1971 16.2804 42.2572 16.3057C42.3204 16.331 42.3915 16.3436 42.4706 16.3436C42.5718 16.3436 42.6634 16.3231 42.7456 16.282C42.831 16.2409 42.899 16.1808 42.9496 16.1018C43.0033 16.0196 43.0302 15.9247 43.0302 15.8172L43.1061 16.1018C43.1061 16.2409 43.065 16.3579 42.9828 16.4527C42.9037 16.5444 42.8026 16.614 42.6793 16.6614C42.5591 16.7057 42.4358 16.7278 42.3093 16.7278C42.1734 16.7278 42.0469 16.7009 41.93 16.6472C41.813 16.5934 41.7197 16.5144 41.6502 16.41C41.5806 16.3057 41.5458 16.1792 41.5458 16.0307C41.5458 15.8188 41.6201 15.6513 41.7687 15.528C41.9173 15.4015 42.1276 15.3383 42.3995 15.3383C42.5449 15.3383 42.6698 15.3541 42.7741 15.3857C42.8816 15.4173 42.9701 15.4552 43.0397 15.4995C43.1092 15.5406 43.1582 15.5785 43.1867 15.6133V15.8742C43.0887 15.8046 42.9843 15.754 42.8737 15.7224C42.763 15.6908 42.6461 15.675 42.5228 15.675C42.4153 15.675 42.3283 15.6892 42.2619 15.7177C42.1955 15.7429 42.1449 15.7793 42.1102 15.8267C42.0786 15.8742 42.0627 15.9326 42.0627 16.0022ZM41.9015 15.0679L41.6928 14.7075C41.7908 14.6475 41.9173 14.589 42.0722 14.5321C42.2303 14.4751 42.4105 14.4467 42.6129 14.4467C42.7931 14.4467 42.9512 14.4736 43.0871 14.5273C43.2262 14.5811 43.3353 14.6585 43.4143 14.7597C43.4934 14.8577 43.5329 14.9794 43.5329 15.1249V16.6804H43.0302V15.2244C43.0302 15.1549 43.0175 15.098 42.9923 15.0537C42.9701 15.0095 42.9385 14.9731 42.8974 14.9446C42.8563 14.9162 42.8073 14.8956 42.7504 14.883C42.6935 14.8703 42.6318 14.864 42.5654 14.864C42.4643 14.864 42.3678 14.8767 42.2762 14.902C42.1876 14.9241 42.1102 14.9525 42.0438 14.9873C41.9805 15.0189 41.9331 15.0458 41.9015 15.0679ZM44.2296 15.9643C44.2991 16.0401 44.3687 16.1065 44.4382 16.1634C44.511 16.2172 44.5837 16.2583 44.6564 16.2867C44.7291 16.312 44.8018 16.3247 44.8745 16.3247C44.9662 16.3247 45.0374 16.3041 45.0879 16.263C45.1417 16.2219 45.1686 16.165 45.1686 16.0923C45.1686 16.0291 45.148 15.9753 45.1069 15.9311C45.0658 15.8836 45.0089 15.8441 44.9362 15.8125C44.8635 15.7777 44.7781 15.7429 44.6801 15.7082C44.5821 15.6702 44.4841 15.626 44.3861 15.5754C44.2912 15.5216 44.2122 15.4521 44.149 15.3667C44.0889 15.2814 44.0588 15.1739 44.0588 15.0442C44.0588 14.9114 44.092 14.8008 44.1584 14.7123C44.228 14.6237 44.3197 14.5589 44.4335 14.5178C44.5505 14.4736 44.6754 14.4514 44.8081 14.4514C44.9283 14.4514 45.0405 14.4688 45.1449 14.5036C45.2523 14.5384 45.3488 14.5842 45.4341 14.6411C45.5195 14.698 45.5922 14.7629 45.6523 14.8356L45.3677 15.1391C45.295 15.0537 45.2081 14.9842 45.1069 14.9304C45.0057 14.8767 44.9014 14.8498 44.7939 14.8498C44.7212 14.8498 44.6611 14.8656 44.6137 14.8972C44.5663 14.9288 44.5426 14.9747 44.5426 15.0348C44.5426 15.0853 44.5631 15.1312 44.6042 15.1723C44.6485 15.2102 44.7054 15.245 44.7749 15.2766C44.8477 15.3082 44.9283 15.3414 45.0168 15.3762C45.1369 15.4236 45.2476 15.4758 45.3488 15.5327C45.4499 15.5896 45.5306 15.6592 45.5906 15.7414C45.6539 15.8236 45.6855 15.9311 45.6855 16.0638C45.6855 16.2694 45.6143 16.4353 45.4721 16.5618C45.333 16.6851 45.1433 16.7468 44.903 16.7468C44.7544 16.7468 44.6169 16.7246 44.4904 16.6804C44.3671 16.6329 44.258 16.5729 44.1632 16.5001C44.0715 16.4243 43.994 16.3452 43.9308 16.263L44.2296 15.9643ZM46.121 13.631C46.121 13.5425 46.1526 13.4682 46.2158 13.4081C46.2822 13.348 46.3581 13.318 46.4435 13.318C46.5351 13.318 46.611 13.348 46.6711 13.4081C46.7343 13.4682 46.7659 13.5425 46.7659 13.631C46.7659 13.7164 46.7343 13.7907 46.6711 13.8539C46.611 13.914 46.5351 13.944 46.4435 13.944C46.3581 13.944 46.2822 13.914 46.2158 13.8539C46.1526 13.7907 46.121 13.7164 46.121 13.631ZM46.1921 14.4989H46.6948V16.6804H46.1921V14.4989ZM47.0724 14.4989H47.6273L48.1394 15.7983L48.7417 14.3329L49.382 15.803L49.8941 14.4989H50.449L49.4294 16.8369L48.7465 15.362L48.092 16.8369L47.0724 14.4989ZM51.0983 16.0022C51.0983 16.0749 51.1157 16.1381 51.1505 16.1919C51.1852 16.2425 51.2327 16.2804 51.2927 16.3057C51.356 16.331 51.4271 16.3436 51.5061 16.3436C51.6073 16.3436 51.699 16.3231 51.7812 16.282C51.8666 16.2409 51.9345 16.1808 51.9851 16.1018C52.0389 16.0196 52.0657 15.9247 52.0657 15.8172L52.1416 16.1018C52.1416 16.2409 52.1005 16.3579 52.0183 16.4527C51.9393 16.5444 51.8381 16.614 51.7148 16.6614C51.5947 16.7057 51.4714 16.7278 51.3449 16.7278C51.2089 16.7278 51.0825 16.7009 50.9655 16.6472C50.8485 16.5934 50.7553 16.5144 50.6857 16.41C50.6161 16.3057 50.5814 16.1792 50.5814 16.0307C50.5814 15.8188 50.6557 15.6513 50.8043 15.528C50.9529 15.4015 51.1631 15.3383 51.435 15.3383C51.5804 15.3383 51.7053 15.3541 51.8096 15.3857C51.9171 15.4173 52.0057 15.4552 52.0752 15.4995C52.1448 15.5406 52.1938 15.5785 52.2222 15.6133V15.8742C52.1242 15.8046 52.0199 15.754 51.9092 15.7224C51.7986 15.6908 51.6816 15.675 51.5583 15.675C51.4508 15.675 51.3639 15.6892 51.2975 15.7177C51.2311 15.7429 51.1805 15.7793 51.1457 15.8267C51.1141 15.8742 51.0983 15.9326 51.0983 16.0022ZM50.937 15.0679L50.7284 14.7075C50.8264 14.6475 50.9529 14.589 51.1078 14.5321C51.2659 14.4751 51.4461 14.4467 51.6484 14.4467C51.8286 14.4467 51.9867 14.4736 52.1226 14.5273C52.2618 14.5811 52.3708 14.6585 52.4499 14.7597C52.5289 14.8577 52.5684 14.9794 52.5684 15.1249V16.6804H52.0657V15.2244C52.0657 15.1549 52.0531 15.098 52.0278 15.0537C52.0057 15.0095 51.974 14.9731 51.9329 14.9446C51.8918 14.9162 51.8428 14.8956 51.7859 14.883C51.729 14.8703 51.6674 14.864 51.601 14.864C51.4998 14.864 51.4034 14.8767 51.3117 14.902C51.2232 14.9241 51.1457 14.9525 51.0793 14.9873C51.0161 15.0189 50.9687 15.0458 50.937 15.0679Z" fill="#2E3A59"/>
<rect x="24.2619" y="30.9134" width="94.0206" height="0.263466" fill="#F0F0F0"/>
<rect x="24.2618" y="52.5176" width="94.0206" height="0.263466" fill="#F0F0F0"/>
<rect x="24.2618" y="74.1218" width="94.0206" height="0.263466" fill="#F0F0F0"/>
<rect x="24.2618" y="41.7156" width="94.0206" height="0.263466" fill="#F0F0F0"/>
<rect x="24.2618" y="63.3197" width="94.0206" height="0.263466" fill="#F0F0F0"/>
<rect x="24.2618" y="84.924" width="94.0206" height="0.263466" fill="#F0F0F0"/>
<g filter="url(#filter1_b_215_156)">
<rect x="29.3168" y="61.212" width="12.8057" height="32.4063" fill="#0052B4"/>
</g>
<g filter="url(#filter2_b_215_156)">
<rect x="76.8326" y="74.9122" width="13.1427" height="18.7061" fill="#0052B4"/>
</g>
<g filter="url(#filter3_b_215_156)">
<rect x="45.1554" y="70.1698" width="13.1427" height="23.4485" fill="#0052B4"/>
</g>
<g filter="url(#filter4_b_215_156)">
<rect x="93.0081" y="35.9192" width="12.8057" height="57.6991" fill="#0052B4"/>
</g>
<g filter="url(#filter5_b_215_156)">
<rect x="61.331" y="46.7213" width="12.4687" height="46.8969" fill="#0052B4"/>
</g>
<path d="M32.3497 83.0797C32.3497 83.0797 38.5779 75.5675 50.2505 68.1833C71.2659 54.8888 74.2797 76.3322 86.7243 71.0586C97.054 66.6812 109.858 54.8888 109.858 54.8888" stroke="#018183" stroke-width="0.526932" stroke-linecap="round"/>
<path d="M85.7996 71.6189C85.7996 72.4636 84.9099 73.1997 83.7409 73.1997C82.5719 73.1997 81.6822 72.4636 81.6822 71.6189C81.6822 70.7742 82.5719 70.0381 83.7409 70.0381C84.9099 70.0381 85.7996 70.7742 85.7996 71.6189Z" fill="#018183" stroke="white" stroke-width="0.263466"/>
<g filter="url(#filter6_b_215_156)">
<rect x="72.7887" y="55.9426" width="20.2195" height="9.48478" rx="1.05386" fill="#2E3A59" fill-opacity="0.4"/>
</g>
<path d="M80.6552 60.4695H80.2752L80.0123 59.7221H78.8524L78.5894 60.4695H78.2274L79.2036 57.7877H79.6791L80.6552 60.4695ZM79.9024 59.4159L79.4323 58.0993L78.9605 59.4159H79.9024ZM82.775 58.4577L81.961 60.4695H81.6206L80.8119 58.4577H81.1793L81.8025 60.0588L82.4202 58.4577H82.775ZM84.8498 60.2408C84.8498 60.5817 84.7724 60.8321 84.6175 60.9918C84.4626 61.1515 84.2243 61.2313 83.9025 61.2313C83.7956 61.2313 83.6912 61.2235 83.5891 61.2079C83.4883 61.1935 83.3886 61.1725 83.2901 61.1449V60.7991H83.3082C83.3634 60.8207 83.451 60.8471 83.5711 60.8783C83.6912 60.9107 83.8112 60.9269 83.9313 60.9269C84.0466 60.9269 84.142 60.9131 84.2177 60.8855C84.2933 60.8579 84.3522 60.8195 84.3942 60.7703C84.4362 60.7234 84.4662 60.667 84.4842 60.601C84.5022 60.5349 84.5112 60.4611 84.5112 60.3794V60.1957C84.4092 60.2774 84.3113 60.3386 84.2177 60.3794C84.1252 60.4191 84.007 60.4389 83.8629 60.4389C83.6227 60.4389 83.4318 60.3524 83.2901 60.1795C83.1497 60.0054 83.0794 59.7605 83.0794 59.4447C83.0794 59.2718 83.1034 59.1229 83.1515 58.998C83.2007 58.872 83.2673 58.7633 83.3514 58.672C83.4294 58.5868 83.5243 58.5208 83.6359 58.4739C83.7476 58.4259 83.8587 58.4019 83.9691 58.4019C84.0856 58.4019 84.1829 58.4139 84.2609 58.4379C84.3402 58.4607 84.4236 58.4961 84.5112 58.5442L84.5329 58.4577H84.8498V60.2408ZM84.5112 59.9166V58.8197C84.4212 58.7789 84.3371 58.7501 84.2591 58.7333C84.1823 58.7153 84.1054 58.7063 84.0286 58.7063C83.8425 58.7063 83.696 58.7687 83.5891 58.8936C83.4823 59.0184 83.4288 59.1998 83.4288 59.4375C83.4288 59.6632 83.4684 59.8343 83.5477 59.9508C83.6269 60.0673 83.7584 60.1255 83.9421 60.1255C84.0406 60.1255 84.139 60.1069 84.2375 60.0697C84.3371 60.0312 84.4284 59.9802 84.5112 59.9166Z" fill="white"/>
<path d="M79.656 62.081C79.656 62.1829 79.6379 62.2776 79.6019 62.3651C79.5669 62.4515 79.5175 62.5267 79.4537 62.5905C79.3745 62.6697 79.2808 62.7294 79.1728 62.7696C79.0647 62.8087 78.9283 62.8282 78.7637 62.8282H78.458V63.685H78.1523V61.3864H78.776C78.9139 61.3864 79.0307 61.3982 79.1265 61.4219C79.2222 61.4445 79.3071 61.4805 79.3812 61.5299C79.4686 61.5886 79.5361 61.6617 79.5834 61.7491C79.6318 61.8366 79.656 61.9473 79.656 62.081ZM79.3379 62.0888C79.3379 62.0095 79.3241 61.9406 79.2963 61.8819C79.2685 61.8232 79.2263 61.7754 79.1697 61.7383C79.1203 61.7064 79.0637 61.6838 78.9999 61.6704C78.9371 61.656 78.8573 61.6488 78.7606 61.6488H78.458V62.5673H78.7158C78.8393 62.5673 78.9397 62.5565 79.0168 62.5349C79.094 62.5123 79.1568 62.4768 79.2052 62.4284C79.2536 62.379 79.2875 62.327 79.3071 62.2725C79.3277 62.2179 79.3379 62.1567 79.3379 62.0888ZM81.5069 62.8236C81.5069 63.1045 81.4349 63.3263 81.2908 63.4889C81.1467 63.6515 80.9537 63.7329 80.7119 63.7329C80.468 63.7329 80.274 63.6515 80.1299 63.4889C79.9868 63.3263 79.9153 63.1045 79.9153 62.8236C79.9153 62.5426 79.9868 62.3208 80.1299 62.1582C80.274 61.9946 80.468 61.9128 80.7119 61.9128C80.9537 61.9128 81.1467 61.9946 81.2908 62.1582C81.4349 62.3208 81.5069 62.5426 81.5069 62.8236ZM81.2074 62.8236C81.2074 62.6003 81.1637 62.4346 81.0762 62.3265C80.9887 62.2174 80.8673 62.1629 80.7119 62.1629C80.5544 62.1629 80.4319 62.2174 80.3445 62.3265C80.258 62.4346 80.2148 62.6003 80.2148 62.8236C80.2148 63.0397 80.2585 63.2039 80.346 63.316C80.4335 63.4272 80.5554 63.4828 80.7119 63.4828C80.8663 63.4828 80.9872 63.4277 81.0747 63.3176C81.1632 63.2064 81.2074 63.0418 81.2074 62.8236ZM82.2695 61.672H81.9422V61.3709H82.2695V61.672ZM82.251 63.685H81.9608V61.9606H82.251V63.685ZM84.2671 63.685H83.9769V62.7032C83.9769 62.6239 83.9723 62.5498 83.963 62.4809C83.9537 62.4109 83.9368 62.3563 83.9121 62.3172C83.8863 62.274 83.8493 62.2421 83.8009 62.2215C83.7525 62.1999 83.6898 62.1891 83.6126 62.1891C83.5333 62.1891 83.4505 62.2087 83.364 62.2478C83.2776 62.2869 83.1947 62.3368 83.1155 62.3975V63.685H82.8253V61.9606H83.1155V62.1521C83.2061 62.0769 83.2997 62.0183 83.3965 61.9761C83.4932 61.9339 83.5925 61.9128 83.6944 61.9128C83.8807 61.9128 84.0227 61.9689 84.1205 62.081C84.2182 62.1932 84.2671 62.3548 84.2671 62.5658V63.685ZM85.7213 63.6696C85.6668 63.684 85.6071 63.6958 85.5423 63.7051C85.4785 63.7143 85.4213 63.719 85.3709 63.719C85.1949 63.719 85.0611 63.6716 84.9695 63.5769C84.8779 63.4823 84.8321 63.3305 84.8321 63.1215V62.2045H84.6361V61.9606H84.8321V61.4651H85.1224V61.9606H85.7213V62.2045H85.1224V62.9903C85.1224 63.0809 85.1244 63.1519 85.1285 63.2033C85.1327 63.2538 85.1471 63.3011 85.1718 63.3454C85.1944 63.3865 85.2253 63.4169 85.2644 63.4365C85.3045 63.455 85.3652 63.4642 85.4465 63.4642C85.4939 63.4642 85.5433 63.4576 85.5947 63.4442C85.6462 63.4298 85.6833 63.4179 85.7059 63.4087H85.7213V63.6696Z" fill="white"/>
<path d="M16.3889 31.3624C16.3889 31.5182 16.3375 31.6454 16.2345 31.7442C16.1323 31.8423 16.0067 31.8914 15.8579 31.8914C15.7824 31.8914 15.7138 31.8797 15.652 31.8564C15.5903 31.8331 15.5357 31.7984 15.4884 31.7525C15.4294 31.6955 15.3838 31.62 15.3515 31.526C15.32 31.4321 15.3042 31.3188 15.3042 31.1864C15.3042 31.0506 15.3186 30.9302 15.3474 30.8252C15.3769 30.7202 15.4236 30.6269 15.4874 30.5453C15.5477 30.4677 15.6256 30.4073 15.721 30.3641C15.8164 30.3202 15.9275 30.2983 16.0544 30.2983C16.0949 30.2983 16.1289 30.3 16.1563 30.3034C16.1838 30.3068 16.2116 30.313 16.2397 30.3219V30.5185H16.2294C16.2102 30.5082 16.181 30.4986 16.1419 30.4897C16.1035 30.4801 16.064 30.4753 16.0236 30.4753C15.876 30.4753 15.7584 30.5216 15.6706 30.6142C15.5827 30.7061 15.5316 30.8307 15.5172 30.9878C15.5748 30.9528 15.6314 30.9264 15.687 30.9085C15.7433 30.89 15.8081 30.8808 15.8815 30.8808C15.9467 30.8808 16.004 30.8869 16.0534 30.8993C16.1035 30.911 16.1546 30.935 16.2067 30.9713C16.2671 31.0132 16.3124 31.066 16.3426 31.1298C16.3735 31.1936 16.3889 31.2712 16.3889 31.3624ZM16.18 31.3706C16.18 31.3068 16.1704 31.254 16.1512 31.2122C16.1327 31.1703 16.1018 31.1339 16.0586 31.1031C16.027 31.0811 15.992 31.0667 15.9536 31.0598C15.9152 31.053 15.875 31.0495 15.8332 31.0495C15.7748 31.0495 15.7206 31.0564 15.6706 31.0701C15.6205 31.0839 15.569 31.1051 15.5162 31.1339C15.5148 31.149 15.5138 31.1638 15.5131 31.1782C15.5124 31.1919 15.5121 31.2094 15.5121 31.2307C15.5121 31.3391 15.523 31.4248 15.545 31.488C15.5676 31.5504 15.5985 31.5998 15.6376 31.6362C15.6692 31.6664 15.7031 31.6887 15.7395 31.7031C15.7766 31.7168 15.8167 31.7236 15.8599 31.7236C15.9594 31.7236 16.0376 31.6935 16.0946 31.6331C16.1515 31.572 16.18 31.4845 16.18 31.3706ZM17.7042 31.0928C17.7042 31.3679 17.661 31.57 17.5745 31.6989C17.4887 31.8272 17.3553 31.8914 17.1742 31.8914C16.9903 31.8914 16.8558 31.8262 16.7707 31.6959C16.6863 31.5655 16.6441 31.3652 16.6441 31.0948C16.6441 30.8224 16.687 30.6214 16.7728 30.4917C16.8586 30.3614 16.9923 30.2962 17.1742 30.2962C17.358 30.2962 17.4922 30.3624 17.5766 30.4948C17.6616 30.6266 17.7042 30.8259 17.7042 31.0928ZM17.4335 31.56C17.4575 31.5044 17.4737 31.4393 17.4819 31.3645C17.4908 31.289 17.4953 31.1984 17.4953 31.0928C17.4953 30.9885 17.4908 30.8979 17.4819 30.8211C17.4737 30.7442 17.4572 30.679 17.4325 30.6255C17.4085 30.5727 17.3755 30.5329 17.3337 30.5061C17.2925 30.4794 17.2393 30.466 17.1742 30.466C17.1097 30.466 17.0562 30.4794 17.0136 30.5061C16.9718 30.5329 16.9385 30.5734 16.9138 30.6276C16.8905 30.6784 16.8743 30.7446 16.8654 30.8262C16.8572 30.9079 16.8531 30.9974 16.8531 31.0948C16.8531 31.2019 16.8568 31.2914 16.8644 31.3634C16.8719 31.4355 16.8881 31.5 16.9128 31.5569C16.9354 31.6104 16.9673 31.6513 17.0085 31.6794C17.0503 31.7075 17.1056 31.7216 17.1742 31.7216C17.2387 31.7216 17.2922 31.7082 17.3347 31.6815C17.3773 31.6547 17.4102 31.6142 17.4335 31.56ZM18.7529 30.7521C18.7529 30.9058 18.7203 31.02 18.6551 31.0948C18.5906 31.1696 18.4973 31.207 18.3752 31.207C18.2503 31.207 18.156 31.1696 18.0922 31.0948C18.0284 31.02 17.9965 30.9061 17.9965 30.7531C17.9965 30.5995 18.0291 30.4852 18.0942 30.4104C18.1594 30.3356 18.2531 30.2983 18.3752 30.2983C18.4994 30.2983 18.5934 30.336 18.6572 30.4115C18.721 30.4869 18.7529 30.6005 18.7529 30.7521ZM19.4641 30.3271L18.6613 31.8595H18.4915L19.2942 30.3271H19.4641ZM19.9581 31.4345C19.9581 31.5881 19.9255 31.7024 19.8603 31.7772C19.7951 31.8519 19.7014 31.8893 19.5793 31.8893C19.4551 31.8893 19.3611 31.8516 19.2973 31.7761C19.2335 31.7007 19.2016 31.5871 19.2016 31.4355C19.2016 31.2818 19.2339 31.1676 19.2984 31.0928C19.3635 31.018 19.4572 30.9806 19.5793 30.9806C19.7042 30.9806 19.7985 31.018 19.8623 31.0928C19.9261 31.1676 19.9581 31.2814 19.9581 31.4345ZM18.5697 30.7521C18.5697 30.6341 18.5543 30.5518 18.5234 30.5051C18.4932 30.4585 18.4438 30.4351 18.3752 30.4351C18.3052 30.4351 18.2551 30.4585 18.2249 30.5051C18.1948 30.5518 18.1797 30.6344 18.1797 30.7531C18.1797 30.8718 18.1948 30.9545 18.2249 31.0012C18.2551 31.0471 18.3052 31.0701 18.3752 31.0701C18.4438 31.0701 18.4932 31.0471 18.5234 31.0012C18.5543 30.9545 18.5697 30.8715 18.5697 30.7521ZM19.7749 31.4345C19.7749 31.3164 19.7594 31.2341 19.7285 31.1875C19.6984 31.1408 19.649 31.1175 19.5803 31.1175C19.5104 31.1175 19.4603 31.1408 19.4301 31.1875C19.3999 31.2341 19.3848 31.3168 19.3848 31.4355C19.3848 31.5542 19.3999 31.6369 19.4301 31.6835C19.4603 31.7295 19.5104 31.7525 19.5803 31.7525C19.649 31.7525 19.6984 31.7295 19.7285 31.6835C19.7594 31.6369 19.7749 31.5538 19.7749 31.4345Z" fill="black"/>
<path d="M16.3539 42.1748C16.3539 42.2461 16.3408 42.3144 16.3148 42.3796C16.2887 42.4447 16.253 42.4996 16.2077 42.5442C16.1583 42.5923 16.0993 42.6293 16.0307 42.6554C15.9628 42.6808 15.8839 42.6935 15.794 42.6935C15.7103 42.6935 15.6297 42.6845 15.5521 42.6667C15.4746 42.6496 15.4091 42.6286 15.3556 42.6039V42.3868H15.37C15.4262 42.4225 15.4921 42.453 15.5676 42.4784C15.643 42.5031 15.7171 42.5154 15.7899 42.5154C15.8386 42.5154 15.8856 42.5086 15.9309 42.4948C15.9768 42.4811 16.0177 42.4571 16.0533 42.4228C16.0835 42.3933 16.1062 42.358 16.1213 42.3168C16.137 42.2756 16.1449 42.2279 16.1449 42.1737C16.1449 42.1209 16.1357 42.0763 16.1172 42.0399C16.0993 42.0036 16.0743 41.9744 16.042 41.9525C16.0063 41.9264 15.9628 41.9082 15.9113 41.8979C15.8605 41.8869 15.8036 41.8815 15.7405 41.8815C15.6801 41.8815 15.6218 41.8856 15.5655 41.8938C15.5099 41.902 15.4619 41.9103 15.4214 41.9185V41.1291H16.3436V41.3092H15.6201V41.7168C15.6496 41.714 15.6798 41.712 15.7106 41.7106C15.7415 41.7092 15.7683 41.7086 15.7909 41.7086C15.8739 41.7086 15.9467 41.7158 16.0091 41.7302C16.0715 41.7439 16.1288 41.7686 16.181 41.8043C16.2358 41.842 16.2784 41.8907 16.3086 41.9504C16.3388 42.0101 16.3539 42.0849 16.3539 42.1748ZM17.7041 41.8948C17.7041 42.17 17.6609 42.372 17.5744 42.501C17.4887 42.6293 17.3552 42.6935 17.1741 42.6935C16.9902 42.6935 16.8557 42.6283 16.7707 42.4979C16.6863 42.3676 16.6441 42.1672 16.6441 41.8969C16.6441 41.6245 16.687 41.4235 16.7727 41.2938C16.8585 41.1634 16.9923 41.0983 17.1741 41.0983C17.358 41.0983 17.4921 41.1645 17.5765 41.2969C17.6616 41.4286 17.7041 41.6279 17.7041 41.8948ZM17.4335 42.3621C17.4575 42.3065 17.4736 42.2413 17.4818 42.1665C17.4907 42.0911 17.4952 42.0005 17.4952 41.8948C17.4952 41.7905 17.4907 41.7 17.4818 41.6231C17.4736 41.5463 17.4571 41.4811 17.4324 41.4276C17.4084 41.3748 17.3755 41.335 17.3336 41.3082C17.2925 41.2815 17.2393 41.2681 17.1741 41.2681C17.1096 41.2681 17.0561 41.2815 17.0136 41.3082C16.9717 41.335 16.9384 41.3754 16.9137 41.4297C16.8904 41.4804 16.8743 41.5466 16.8654 41.6283C16.8571 41.7099 16.853 41.7995 16.853 41.8969C16.853 42.0039 16.8568 42.0935 16.8643 42.1655C16.8719 42.2375 16.888 42.302 16.9127 42.359C16.9353 42.4125 16.9672 42.4533 17.0084 42.4815C17.0503 42.5096 17.1055 42.5237 17.1741 42.5237C17.2386 42.5237 17.2921 42.5103 17.3347 42.4835C17.3772 42.4568 17.4101 42.4163 17.4335 42.3621ZM18.7528 41.5542C18.7528 41.7079 18.7203 41.8221 18.6551 41.8969C18.5906 41.9717 18.4973 42.0091 18.3751 42.0091C18.2503 42.0091 18.1559 41.9717 18.0921 41.8969C18.0283 41.8221 17.9964 41.7082 17.9964 41.5552C17.9964 41.4015 18.029 41.2873 18.0942 41.2125C18.1594 41.1377 18.253 41.1003 18.3751 41.1003C18.4993 41.1003 18.5933 41.1381 18.6571 41.2135C18.7209 41.289 18.7528 41.4025 18.7528 41.5542ZM19.464 41.1291L18.6612 42.6616H18.4914L19.2942 41.1291H19.464ZM19.958 42.2365C19.958 42.3902 19.9254 42.5044 19.8602 42.5792C19.795 42.654 19.7014 42.6914 19.5793 42.6914C19.4551 42.6914 19.3611 42.6537 19.2973 42.5782C19.2335 42.5027 19.2016 42.3892 19.2016 42.2375C19.2016 42.0839 19.2338 41.9696 19.2983 41.8948C19.3635 41.82 19.4571 41.7827 19.5793 41.7827C19.7041 41.7827 19.7985 41.82 19.8623 41.8948C19.9261 41.9696 19.958 42.0835 19.958 42.2365ZM18.5696 41.5542C18.5696 41.4362 18.5542 41.3538 18.5233 41.3072C18.4931 41.2605 18.4437 41.2372 18.3751 41.2372C18.3052 41.2372 18.2551 41.2605 18.2249 41.3072C18.1947 41.3538 18.1796 41.4365 18.1796 41.5552C18.1796 41.6739 18.1947 41.7566 18.2249 41.8032C18.2551 41.8492 18.3052 41.8722 18.3751 41.8722C18.4437 41.8722 18.4931 41.8492 18.5233 41.8032C18.5542 41.7566 18.5696 41.6736 18.5696 41.5542ZM19.7748 42.2365C19.7748 42.1185 19.7594 42.0362 19.7285 41.9895C19.6983 41.9429 19.6489 41.9195 19.5803 41.9195C19.5103 41.9195 19.4602 41.9429 19.43 41.9895C19.3998 42.0362 19.3847 42.1188 19.3847 42.2375C19.3847 42.3562 19.3998 42.4389 19.43 42.4856C19.4602 42.5315 19.5103 42.5545 19.5803 42.5545C19.6489 42.5545 19.6983 42.5315 19.7285 42.4856C19.7594 42.4389 19.7748 42.3559 19.7748 42.2365Z" fill="black"/>
<path d="M16.4012 53.0325H16.1738V53.4637H15.9762V53.0325H15.2424V52.7958L15.9844 51.9313H16.1738V52.8678H16.4012V53.0325ZM15.9762 52.8678V52.1762L15.3823 52.8678H15.9762ZM17.7041 52.697C17.7041 52.9721 17.6609 53.1741 17.5744 53.3031C17.4887 53.4314 17.3552 53.4956 17.1741 53.4956C16.9902 53.4956 16.8557 53.4304 16.7707 53.3C16.6863 53.1697 16.6441 52.9693 16.6441 52.699C16.6441 52.4266 16.687 52.2256 16.7727 52.0959C16.8585 51.9656 16.9923 51.9004 17.1741 51.9004C17.358 51.9004 17.4921 51.9666 17.5765 52.099C17.6616 52.2307 17.7041 52.4301 17.7041 52.697ZM17.4335 53.1642C17.4575 53.1086 17.4736 53.0434 17.4818 52.9687C17.4907 52.8932 17.4952 52.8026 17.4952 52.697C17.4952 52.5927 17.4907 52.5021 17.4818 52.4253C17.4736 52.3484 17.4571 52.2832 17.4324 52.2297C17.4084 52.1769 17.3755 52.1371 17.3336 52.1103C17.2925 52.0836 17.2393 52.0702 17.1741 52.0702C17.1096 52.0702 17.0561 52.0836 17.0136 52.1103C16.9717 52.1371 16.9384 52.1776 16.9137 52.2318C16.8904 52.2825 16.8743 52.3488 16.8654 52.4304C16.8571 52.5121 16.853 52.6016 16.853 52.699C16.853 52.806 16.8568 52.8956 16.8643 52.9676C16.8719 53.0397 16.888 53.1042 16.9127 53.1611C16.9353 53.2146 16.9672 53.2554 17.0084 53.2836C17.0503 53.3117 17.1055 53.3258 17.1741 53.3258C17.2386 53.3258 17.2921 53.3124 17.3347 53.2856C17.3772 53.2589 17.4101 53.2184 17.4335 53.1642ZM18.7528 52.3563C18.7528 52.51 18.7203 52.6242 18.6551 52.699C18.5906 52.7738 18.4973 52.8112 18.3751 52.8112C18.2503 52.8112 18.1559 52.7738 18.0921 52.699C18.0283 52.6242 17.9964 52.5103 17.9964 52.3573C17.9964 52.2036 18.029 52.0894 18.0942 52.0146C18.1594 51.9398 18.253 51.9024 18.3751 51.9024C18.4993 51.9024 18.5933 51.9402 18.6571 52.0157C18.7209 52.0911 18.7528 52.2047 18.7528 52.3563ZM19.464 51.9313L18.6612 53.4637H18.4914L19.2942 51.9313H19.464ZM19.958 53.0386C19.958 53.1923 19.9254 53.3066 19.8602 53.3814C19.795 53.4561 19.7014 53.4935 19.5793 53.4935C19.4551 53.4935 19.3611 53.4558 19.2973 53.3803C19.2335 53.3048 19.2016 53.1913 19.2016 53.0397C19.2016 52.886 19.2338 52.7717 19.2983 52.697C19.3635 52.6222 19.4571 52.5848 19.5793 52.5848C19.7041 52.5848 19.7985 52.6222 19.8623 52.697C19.9261 52.7717 19.958 52.8856 19.958 53.0386ZM18.5696 52.3563C18.5696 52.2383 18.5542 52.156 18.5233 52.1093C18.4931 52.0626 18.4437 52.0393 18.3751 52.0393C18.3052 52.0393 18.2551 52.0626 18.2249 52.1093C18.1947 52.156 18.1796 52.2386 18.1796 52.3573C18.1796 52.476 18.1947 52.5587 18.2249 52.6054C18.2551 52.6513 18.3052 52.6743 18.3751 52.6743C18.4437 52.6743 18.4931 52.6513 18.5233 52.6054C18.5542 52.5587 18.5696 52.4757 18.5696 52.3563ZM19.7748 53.0386C19.7748 52.9206 19.7594 52.8383 19.7285 52.7916C19.6983 52.745 19.6489 52.7217 19.5803 52.7217C19.5103 52.7217 19.4602 52.745 19.43 52.7916C19.3998 52.8383 19.3847 52.921 19.3847 53.0397C19.3847 53.1584 19.3998 53.241 19.43 53.2877C19.4602 53.3337 19.5103 53.3567 19.5803 53.3567C19.6489 53.3567 19.6983 53.3337 19.7285 53.2877C19.7594 53.241 19.7748 53.158 19.7748 53.0386Z" fill="black"/>
<path d="M16.3662 75.0679H15.3288V74.8528C15.4009 74.791 15.4729 74.7293 15.5449 74.6675C15.6177 74.6058 15.6852 74.5444 15.7477 74.4833C15.8794 74.3557 15.9696 74.2545 16.0184 74.1797C16.0671 74.1042 16.0914 74.0229 16.0914 73.9358C16.0914 73.8562 16.065 73.7941 16.0122 73.7495C15.96 73.7042 15.887 73.6816 15.793 73.6816C15.7305 73.6816 15.6629 73.6926 15.5902 73.7145C15.5175 73.7365 15.4465 73.7701 15.3772 73.8154H15.3669V73.5993C15.4156 73.5752 15.4804 73.5533 15.5614 73.5334C15.643 73.5135 15.722 73.5035 15.7981 73.5035C15.9552 73.5035 16.0784 73.5416 16.1676 73.6178C16.2568 73.6933 16.3014 73.7958 16.3014 73.9255C16.3014 73.9838 16.2938 74.0384 16.2787 74.0891C16.2643 74.1392 16.2427 74.1869 16.2139 74.2322C16.1871 74.2747 16.1556 74.3166 16.1192 74.3577C16.0835 74.3989 16.04 74.4445 15.9885 74.4946C15.9151 74.5667 15.8393 74.6367 15.7611 74.7046C15.6828 74.7718 15.6098 74.8343 15.5418 74.8919H16.3662V75.0679ZM17.7041 74.3011C17.7041 74.5763 17.6609 74.7783 17.5744 74.9073C17.4887 75.0356 17.3552 75.0998 17.1741 75.0998C16.9902 75.0998 16.8557 75.0346 16.7707 74.9042C16.6863 74.7739 16.6441 74.5735 16.6441 74.3032C16.6441 74.0308 16.687 73.8298 16.7727 73.7001C16.8585 73.5698 16.9923 73.5046 17.1741 73.5046C17.358 73.5046 17.4921 73.5708 17.5765 73.7032C17.6616 73.8349 17.7041 74.0342 17.7041 74.3011ZM17.4335 74.7684C17.4575 74.7128 17.4736 74.6476 17.4818 74.5728C17.4907 74.4974 17.4952 74.4068 17.4952 74.3011C17.4952 74.1969 17.4907 74.1063 17.4818 74.0294C17.4736 73.9526 17.4571 73.8874 17.4324 73.8339C17.4084 73.7811 17.3755 73.7413 17.3336 73.7145C17.2925 73.6878 17.2393 73.6744 17.1741 73.6744C17.1096 73.6744 17.0561 73.6878 17.0136 73.7145C16.9717 73.7413 16.9384 73.7818 16.9137 73.836C16.8904 73.8867 16.8743 73.9529 16.8654 74.0346C16.8571 74.1162 16.853 74.2058 16.853 74.3032C16.853 74.4102 16.8568 74.4998 16.8643 74.5718C16.8719 74.6439 16.888 74.7083 16.9127 74.7653C16.9353 74.8188 16.9672 74.8596 17.0084 74.8878C17.0503 74.9159 17.1055 74.93 17.1741 74.93C17.2386 74.93 17.2921 74.9166 17.3347 74.8898C17.3772 74.8631 17.4101 74.8226 17.4335 74.7684ZM18.7528 73.9605C18.7528 74.1142 18.7203 74.2284 18.6551 74.3032C18.5906 74.378 18.4973 74.4154 18.3751 74.4154C18.2503 74.4154 18.1559 74.378 18.0921 74.3032C18.0283 74.2284 17.9964 74.1145 17.9964 73.9615C17.9964 73.8078 18.029 73.6936 18.0942 73.6188C18.1594 73.544 18.253 73.5066 18.3751 73.5066C18.4993 73.5066 18.5933 73.5444 18.6571 73.6198C18.7209 73.6953 18.7528 73.8089 18.7528 73.9605ZM19.464 73.5354L18.6612 75.0679H18.4914L19.2942 73.5354H19.464ZM19.958 74.6428C19.958 74.7965 19.9254 74.9108 19.8602 74.9855C19.795 75.0603 19.7014 75.0977 19.5793 75.0977C19.4551 75.0977 19.3611 75.06 19.2973 74.9845C19.2335 74.909 19.2016 74.7955 19.2016 74.6439C19.2016 74.4902 19.2338 74.3759 19.2983 74.3011C19.3635 74.2264 19.4571 74.189 19.5793 74.189C19.7041 74.189 19.7985 74.2264 19.8623 74.3011C19.9261 74.3759 19.958 74.4898 19.958 74.6428ZM18.5696 73.9605C18.5696 73.8425 18.5542 73.7601 18.5233 73.7135C18.4931 73.6668 18.4437 73.6435 18.3751 73.6435C18.3052 73.6435 18.2551 73.6668 18.2249 73.7135C18.1947 73.7601 18.1796 73.8428 18.1796 73.9615C18.1796 74.0802 18.1947 74.1629 18.2249 74.2095C18.2551 74.2555 18.3052 74.2785 18.3751 74.2785C18.4437 74.2785 18.4931 74.2555 18.5233 74.2095C18.5542 74.1629 18.5696 74.0799 18.5696 73.9605ZM19.7748 74.6428C19.7748 74.5248 19.7594 74.4425 19.7285 74.3958C19.6983 74.3492 19.6489 74.3258 19.5803 74.3258C19.5103 74.3258 19.4602 74.3492 19.43 74.3958C19.3998 74.4425 19.3847 74.5252 19.3847 74.6439C19.3847 74.7626 19.3998 74.8452 19.43 74.8919C19.4602 74.9379 19.5103 74.9608 19.5803 74.9608C19.6489 74.9608 19.6983 74.9379 19.7285 74.8919C19.7594 74.8452 19.7748 74.7622 19.7748 74.6428Z" fill="black"/>
<path d="M16.2787 85.8701H15.4492V85.7136H15.7683V84.6865H15.4492V84.5466C15.4924 84.5466 15.5388 84.5431 15.5882 84.5363C15.6376 84.5287 15.675 84.5181 15.7003 84.5044C15.7319 84.4872 15.7566 84.4656 15.7744 84.4395C15.793 84.4128 15.8036 84.3771 15.8063 84.3325H15.9659V85.7136H16.2787V85.8701ZM17.7041 85.1033C17.7041 85.3785 17.6609 85.5805 17.5744 85.7095C17.4887 85.8378 17.3552 85.902 17.1741 85.902C16.9902 85.902 16.8557 85.8368 16.7707 85.7064C16.6863 85.5761 16.6441 85.3757 16.6441 85.1054C16.6441 84.833 16.687 84.632 16.7727 84.5023C16.8585 84.3719 16.9923 84.3068 17.1741 84.3068C17.358 84.3068 17.4921 84.373 17.5765 84.5054C17.6616 84.6371 17.7041 84.8364 17.7041 85.1033ZM17.4335 85.5706C17.4575 85.515 17.4736 85.4498 17.4818 85.375C17.4907 85.2996 17.4952 85.209 17.4952 85.1033C17.4952 84.999 17.4907 84.9085 17.4818 84.8316C17.4736 84.7548 17.4571 84.6896 17.4324 84.6361C17.4084 84.5833 17.3755 84.5435 17.3336 84.5167C17.2925 84.4899 17.2393 84.4766 17.1741 84.4766C17.1096 84.4766 17.0561 84.4899 17.0136 84.5167C16.9717 84.5435 16.9384 84.5839 16.9137 84.6381C16.8904 84.6889 16.8743 84.7551 16.8654 84.8368C16.8571 84.9184 16.853 85.008 16.853 85.1054C16.853 85.2124 16.8568 85.302 16.8643 85.374C16.8719 85.446 16.888 85.5105 16.9127 85.5675C16.9353 85.621 16.9672 85.6618 17.0084 85.69C17.0503 85.7181 17.1055 85.7321 17.1741 85.7321C17.2386 85.7321 17.2921 85.7188 17.3347 85.692C17.3772 85.6653 17.4101 85.6248 17.4335 85.5706ZM18.7528 84.7627C18.7528 84.9164 18.7203 85.0306 18.6551 85.1054C18.5906 85.1802 18.4973 85.2176 18.3751 85.2176C18.2503 85.2176 18.1559 85.1802 18.0921 85.1054C18.0283 85.0306 17.9964 84.9167 17.9964 84.7637C17.9964 84.61 18.029 84.4958 18.0942 84.421C18.1594 84.3462 18.253 84.3088 18.3751 84.3088C18.4993 84.3088 18.5933 84.3466 18.6571 84.422C18.7209 84.4975 18.7528 84.611 18.7528 84.7627ZM19.464 84.3376L18.6612 85.8701H18.4914L19.2942 84.3376H19.464ZM19.958 85.445C19.958 85.5987 19.9254 85.7129 19.8602 85.7877C19.795 85.8625 19.7014 85.8999 19.5793 85.8999C19.4551 85.8999 19.3611 85.8622 19.2973 85.7867C19.2335 85.7112 19.2016 85.5977 19.2016 85.446C19.2016 85.2924 19.2338 85.1781 19.2983 85.1033C19.3635 85.0285 19.4571 84.9912 19.5793 84.9912C19.7041 84.9912 19.7985 85.0285 19.8623 85.1033C19.9261 85.1781 19.958 85.292 19.958 85.445ZM18.5696 84.7627C18.5696 84.6447 18.5542 84.5623 18.5233 84.5157C18.4931 84.469 18.4437 84.4457 18.3751 84.4457C18.3052 84.4457 18.2551 84.469 18.2249 84.5157C18.1947 84.5623 18.1796 84.645 18.1796 84.7637C18.1796 84.8824 18.1947 84.9651 18.2249 85.0117C18.2551 85.0577 18.3052 85.0807 18.3751 85.0807C18.4437 85.0807 18.4931 85.0577 18.5233 85.0117C18.5542 84.9651 18.5696 84.8821 18.5696 84.7627ZM19.7748 85.445C19.7748 85.327 19.7594 85.2447 19.7285 85.198C19.6983 85.1514 19.6489 85.128 19.5803 85.128C19.5103 85.128 19.4602 85.1514 19.43 85.198C19.3998 85.2447 19.3847 85.3273 19.3847 85.446C19.3847 85.5647 19.3998 85.6474 19.43 85.6941C19.4602 85.74 19.5103 85.763 19.5803 85.763C19.6489 85.763 19.6983 85.74 19.7285 85.6941C19.7594 85.6474 19.7748 85.5644 19.7748 85.445Z" fill="black"/>
<path d="M16.2314 63.528C16.2643 63.5575 16.2914 63.5945 16.3127 63.6391C16.334 63.6837 16.3446 63.7413 16.3446 63.812C16.3446 63.882 16.3319 63.9461 16.3065 64.0045C16.2811 64.0628 16.2455 64.1136 16.1995 64.1568C16.148 64.2048 16.0873 64.2405 16.0173 64.2638C15.948 64.2865 15.8719 64.2978 15.7888 64.2978C15.7038 64.2978 15.6201 64.2875 15.5377 64.2669C15.4554 64.247 15.3878 64.225 15.335 64.201V63.9859H15.3504C15.4087 64.0244 15.4774 64.0563 15.5563 64.0816C15.6352 64.107 15.7113 64.1197 15.7847 64.1197C15.828 64.1197 15.8739 64.1125 15.9226 64.0981C15.9714 64.0837 16.0108 64.0624 16.041 64.0343C16.0726 64.0041 16.0959 63.9708 16.111 63.9345C16.1268 63.8981 16.1346 63.8521 16.1346 63.7966C16.1346 63.7417 16.1257 63.6964 16.1079 63.6607C16.0907 63.6244 16.0667 63.5959 16.0358 63.5753C16.005 63.554 15.9676 63.5396 15.9237 63.5321C15.8798 63.5238 15.8324 63.5197 15.7816 63.5197H15.689V63.3489H15.7611C15.8653 63.3489 15.9484 63.3273 16.0101 63.284C16.0726 63.2401 16.1038 63.1763 16.1038 63.0926C16.1038 63.0556 16.0959 63.0233 16.0801 62.9959C16.0643 62.9678 16.0424 62.9448 16.0142 62.9269C15.9847 62.9091 15.9532 62.8967 15.9196 62.8899C15.8859 62.883 15.8479 62.8796 15.8053 62.8796C15.7401 62.8796 15.6708 62.8912 15.5974 62.9146C15.524 62.9379 15.4547 62.9708 15.3895 63.0134H15.3792V62.7983C15.428 62.7743 15.4928 62.7523 15.5738 62.7324C15.6554 62.7118 15.7343 62.7015 15.8105 62.7015C15.8852 62.7015 15.9511 62.7084 16.0081 62.7221C16.065 62.7358 16.1165 62.7578 16.1624 62.788C16.2118 62.8209 16.2492 62.8607 16.2746 62.9074C16.3 62.954 16.3127 63.0086 16.3127 63.071C16.3127 63.1561 16.2825 63.2305 16.2221 63.2943C16.1624 63.3575 16.0918 63.3973 16.0101 63.4137V63.4281C16.0431 63.4336 16.0808 63.4453 16.1233 63.4631C16.1659 63.4803 16.2019 63.5019 16.2314 63.528ZM17.7041 63.4991C17.7041 63.7743 17.6609 63.9763 17.5744 64.1053C17.4887 64.2336 17.3552 64.2978 17.1741 64.2978C16.9902 64.2978 16.8557 64.2326 16.7707 64.1022C16.6863 63.9719 16.6441 63.7715 16.6441 63.5012C16.6441 63.2288 16.687 63.0278 16.7727 62.8981C16.8585 62.7677 16.9923 62.7026 17.1741 62.7026C17.358 62.7026 17.4921 62.7688 17.5765 62.9012C17.6616 63.0329 17.7041 63.2322 17.7041 63.4991ZM17.4335 63.9664C17.4575 63.9108 17.4736 63.8456 17.4818 63.7708C17.4907 63.6954 17.4952 63.6048 17.4952 63.4991C17.4952 63.3949 17.4907 63.3043 17.4818 63.2274C17.4736 63.1506 17.4571 63.0854 17.4324 63.0319C17.4084 62.9791 17.3755 62.9393 17.3336 62.9125C17.2925 62.8858 17.2393 62.8724 17.1741 62.8724C17.1096 62.8724 17.0561 62.8858 17.0136 62.9125C16.9717 62.9393 16.9384 62.9798 16.9137 63.034C16.8904 63.0847 16.8743 63.1509 16.8654 63.2326C16.8571 63.3142 16.853 63.4038 16.853 63.5012C16.853 63.6082 16.8568 63.6978 16.8643 63.7698C16.8719 63.8419 16.888 63.9063 16.9127 63.9633C16.9353 64.0168 16.9672 64.0576 17.0084 64.0858C17.0503 64.1139 17.1055 64.128 17.1741 64.128C17.2386 64.128 17.2921 64.1146 17.3347 64.0878C17.3772 64.0611 17.4101 64.0206 17.4335 63.9664ZM18.7528 63.1585C18.7528 63.3122 18.7203 63.4264 18.6551 63.5012C18.5906 63.576 18.4973 63.6134 18.3751 63.6134C18.2503 63.6134 18.1559 63.576 18.0921 63.5012C18.0283 63.4264 17.9964 63.3125 17.9964 63.1595C17.9964 63.0058 18.029 62.8916 18.0942 62.8168C18.1594 62.742 18.253 62.7046 18.3751 62.7046C18.4993 62.7046 18.5933 62.7424 18.6571 62.8178C18.7209 62.8933 18.7528 63.0069 18.7528 63.1585ZM19.464 62.7334L18.6612 64.2659H18.4914L19.2942 62.7334H19.464ZM19.958 63.8408C19.958 63.9945 19.9254 64.1088 19.8602 64.1835C19.795 64.2583 19.7014 64.2957 19.5793 64.2957C19.4551 64.2957 19.3611 64.258 19.2973 64.1825C19.2335 64.107 19.2016 63.9935 19.2016 63.8419C19.2016 63.6882 19.2338 63.5739 19.2983 63.4991C19.3635 63.4244 19.4571 63.387 19.5793 63.387C19.7041 63.387 19.7985 63.4244 19.8623 63.4991C19.9261 63.5739 19.958 63.6878 19.958 63.8408ZM18.5696 63.1585C18.5696 63.0405 18.5542 62.9581 18.5233 62.9115C18.4931 62.8648 18.4437 62.8415 18.3751 62.8415C18.3052 62.8415 18.2551 62.8648 18.2249 62.9115C18.1947 62.9581 18.1796 63.0408 18.1796 63.1595C18.1796 63.2782 18.1947 63.3609 18.2249 63.4075C18.2551 63.4535 18.3052 63.4765 18.3751 63.4765C18.4437 63.4765 18.4931 63.4535 18.5233 63.4075C18.5542 63.3609 18.5696 63.2779 18.5696 63.1585ZM19.7748 63.8408C19.7748 63.7228 19.7594 63.6405 19.7285 63.5938C19.6983 63.5472 19.6489 63.5238 19.5803 63.5238C19.5103 63.5238 19.4602 63.5472 19.43 63.5938C19.3998 63.6405 19.3847 63.7232 19.3847 63.8419C19.3847 63.9606 19.3998 64.0432 19.43 64.0899C19.4602 64.1359 19.5103 64.1588 19.5803 64.1588C19.6489 64.1588 19.6983 64.1359 19.7285 64.0899C19.7594 64.0432 19.7748 63.9602 19.7748 63.8408Z" fill="black"/>
<path d="M32.2174 98.6288C32.1844 98.6432 32.1544 98.6567 32.1274 98.6693C32.101 98.6819 32.0662 98.6951 32.0229 98.7089C31.9863 98.7203 31.9464 98.7299 31.9032 98.7377C31.8605 98.7461 31.8134 98.7503 31.7618 98.7503C31.6645 98.7503 31.576 98.7368 31.4961 98.7098C31.4169 98.6822 31.3478 98.6393 31.289 98.581C31.2314 98.524 31.1863 98.4517 31.1539 98.364C31.1215 98.2758 31.1053 98.1734 31.1053 98.0569C31.1053 97.9465 31.1209 97.8477 31.1521 97.7607C31.1833 97.6736 31.2284 97.6001 31.2872 97.54C31.3442 97.4818 31.413 97.4374 31.4934 97.4068C31.5745 97.3761 31.6642 97.3608 31.7627 97.3608C31.8347 97.3608 31.9065 97.3695 31.9779 97.3869C32.0499 97.4044 32.1298 97.435 32.2174 97.4788V97.6904H32.2039C32.1301 97.6286 32.0568 97.5836 31.9842 97.5553C31.9116 97.5271 31.8338 97.513 31.751 97.513C31.6831 97.513 31.6219 97.5241 31.5673 97.5463C31.5132 97.5679 31.4649 97.6019 31.4223 97.6481C31.3809 97.6931 31.3484 97.7502 31.325 97.8192C31.3022 97.8876 31.2908 97.9669 31.2908 98.0569C31.2908 98.1512 31.3034 98.2322 31.3286 98.3001C31.3544 98.3679 31.3875 98.4231 31.4277 98.4658C31.4697 98.5102 31.5186 98.5432 31.5745 98.5648C31.6309 98.5858 31.6903 98.5963 31.7528 98.5963C31.8386 98.5963 31.9191 98.5816 31.9941 98.5522C32.0692 98.5228 32.1394 98.4787 32.2048 98.4198H32.2174V98.6288ZM32.6272 98.726H32.4579V97.3248H32.6272V98.726ZM33.7438 98.726H33.5754V98.6189C33.5604 98.6291 33.54 98.6435 33.5142 98.6621C33.489 98.6801 33.4644 98.6945 33.4403 98.7053C33.4121 98.7191 33.3797 98.7305 33.3431 98.7395C33.3065 98.7491 33.2635 98.7539 33.2143 98.7539C33.1237 98.7539 33.0468 98.7239 32.9838 98.6639C32.9207 98.6038 32.8892 98.5273 32.8892 98.4342C32.8892 98.358 32.9054 98.2965 32.9379 98.2496C32.9709 98.2022 33.0177 98.165 33.0783 98.138C33.1396 98.111 33.2131 98.0926 33.299 98.083C33.3848 98.0734 33.477 98.0662 33.5754 98.0614V98.0353C33.5754 97.9969 33.5685 97.9651 33.5547 97.9399C33.5415 97.9146 33.5223 97.8948 33.4971 97.8804C33.4731 97.8666 33.4442 97.8573 33.4106 97.8525C33.377 97.8477 33.3419 97.8453 33.3053 97.8453C33.2608 97.8453 33.2113 97.8513 33.1567 97.8633C33.102 97.8747 33.0456 97.8915 32.9874 97.9137H32.9784V97.7417C33.0114 97.7327 33.0591 97.7228 33.1216 97.712C33.184 97.7012 33.2455 97.6958 33.3062 97.6958C33.377 97.6958 33.4385 97.7018 33.4908 97.7138C33.5436 97.7252 33.5892 97.745 33.6277 97.7733C33.6655 97.8009 33.6943 97.8366 33.7141 97.8804C33.7339 97.9243 33.7438 97.9786 33.7438 98.0434V98.726ZM33.5754 98.4784V98.1983C33.5238 98.2013 33.4629 98.2058 33.3926 98.2118C33.323 98.2178 33.2677 98.2265 33.2269 98.2379C33.1783 98.2517 33.139 98.2734 33.109 98.3028C33.0789 98.3316 33.0639 98.3715 33.0639 98.4225C33.0639 98.4802 33.0813 98.5237 33.1162 98.5531C33.151 98.5819 33.2041 98.5963 33.2755 98.5963C33.335 98.5963 33.3893 98.5849 33.4385 98.5621C33.4878 98.5387 33.5334 98.5108 33.5754 98.4784ZM34.7884 98.436C34.7884 98.5279 34.7503 98.6032 34.6741 98.6621C34.5984 98.7209 34.4949 98.7503 34.3634 98.7503C34.2889 98.7503 34.2205 98.7416 34.1581 98.7242C34.0962 98.7062 34.0443 98.6867 34.0023 98.6657V98.4757H34.0113C34.0647 98.5159 34.1241 98.548 34.1896 98.572C34.255 98.5954 34.3177 98.6071 34.3778 98.6071C34.4522 98.6071 34.5105 98.5951 34.5525 98.5711C34.5945 98.5471 34.6155 98.5093 34.6155 98.4577C34.6155 98.418 34.6041 98.388 34.5813 98.3676C34.5585 98.3472 34.5147 98.3298 34.4498 98.3154C34.4258 98.31 34.3943 98.3037 34.3553 98.2965C34.3168 98.2893 34.2817 98.2815 34.2499 98.2731C34.1617 98.2496 34.0989 98.2154 34.0617 98.1704C34.0251 98.1248 34.0068 98.0689 34.0068 98.0029C34.0068 97.9615 34.0152 97.9225 34.032 97.8858C34.0494 97.8492 34.0755 97.8165 34.1103 97.7877C34.1439 97.7595 34.1866 97.7372 34.2382 97.721C34.2904 97.7042 34.3487 97.6958 34.4129 97.6958C34.4729 97.6958 34.5336 97.7033 34.5948 97.7183C34.6566 97.7327 34.708 97.7505 34.7488 97.7715V97.9525H34.7398C34.6966 97.9206 34.644 97.8939 34.5822 97.8723C34.5204 97.8501 34.4597 97.839 34.4003 97.839C34.3385 97.839 34.2862 97.851 34.2436 97.875C34.201 97.8984 34.1797 97.9336 34.1797 97.9804C34.1797 98.0218 34.1926 98.053 34.2184 98.074C34.2436 98.095 34.2844 98.1122 34.3409 98.1254C34.3721 98.1326 34.4069 98.1398 34.4453 98.147C34.4843 98.1542 34.5168 98.1608 34.5426 98.1668C34.6212 98.1848 34.6819 98.2157 34.7245 98.2595C34.7671 98.304 34.7884 98.3628 34.7884 98.436ZM35.7502 98.436C35.7502 98.5279 35.7121 98.6032 35.6358 98.6621C35.5602 98.7209 35.4566 98.7503 35.3251 98.7503C35.2507 98.7503 35.1822 98.7416 35.1198 98.7242C35.058 98.7062 35.006 98.6867 34.964 98.6657V98.4757H34.973C35.0265 98.5159 35.0859 98.548 35.1513 98.572C35.2168 98.5954 35.2795 98.6071 35.3395 98.6071C35.414 98.6071 35.4722 98.5951 35.5142 98.5711C35.5563 98.5471 35.5773 98.5093 35.5773 98.4577C35.5773 98.418 35.5659 98.388 35.5431 98.3676C35.5202 98.3472 35.4764 98.3298 35.4116 98.3154C35.3876 98.31 35.356 98.3037 35.317 98.2965C35.2786 98.2893 35.2435 98.2815 35.2117 98.2731C35.1234 98.2496 35.0607 98.2154 35.0235 98.1704C34.9868 98.1248 34.9685 98.0689 34.9685 98.0029C34.9685 97.9615 34.9769 97.9225 34.9937 97.8858C35.0111 97.8492 35.0373 97.8165 35.0721 97.7877C35.1057 97.7595 35.1483 97.7372 35.2 97.721C35.2522 97.7042 35.3104 97.6958 35.3747 97.6958C35.4347 97.6958 35.4953 97.7033 35.5566 97.7183C35.6184 97.7327 35.6697 97.7505 35.7106 97.7715V97.9525H35.7015C35.6583 97.9206 35.6058 97.8939 35.544 97.8723C35.4821 97.8501 35.4215 97.839 35.3621 97.839C35.3002 97.839 35.248 97.851 35.2054 97.875C35.1627 97.8984 35.1414 97.9336 35.1414 97.9804C35.1414 98.0218 35.1543 98.053 35.1801 98.074C35.2054 98.095 35.2462 98.1122 35.3026 98.1254C35.3338 98.1326 35.3687 98.1398 35.4071 98.147C35.4461 98.1542 35.4785 98.1608 35.5043 98.1668C35.583 98.1848 35.6436 98.2157 35.6862 98.2595C35.7289 98.304 35.7502 98.3628 35.7502 98.436ZM37.7124 98.726H37.5224L37.3909 98.3523H36.811L36.6795 98.726H36.4985L36.9866 97.3851H37.2243L37.7124 98.726ZM37.336 98.1992L37.101 97.5409L36.865 98.1992H37.336Z" fill="#2E3A59"/>
<path d="M44.7502 98.6288C44.7172 98.6432 44.6872 98.6567 44.6602 98.6693C44.6337 98.6819 44.5989 98.6951 44.5557 98.7089C44.5191 98.7203 44.4792 98.7299 44.4359 98.7377C44.3933 98.7461 44.3462 98.7503 44.2946 98.7503C44.1973 98.7503 44.1087 98.7368 44.0289 98.7098C43.9497 98.6822 43.8806 98.6393 43.8218 98.581C43.7641 98.524 43.7191 98.4517 43.6867 98.364C43.6543 98.2758 43.6381 98.1734 43.6381 98.0569C43.6381 97.9465 43.6537 97.8477 43.6849 97.7607C43.7161 97.6736 43.7611 97.6001 43.82 97.54C43.877 97.4818 43.9458 97.4374 44.0262 97.4068C44.1072 97.3761 44.197 97.3608 44.2955 97.3608C44.3675 97.3608 44.4392 97.3695 44.5107 97.3869C44.5827 97.4044 44.6626 97.435 44.7502 97.4788V97.6904H44.7367C44.6629 97.6286 44.5896 97.5836 44.517 97.5553C44.4443 97.5271 44.3666 97.513 44.2837 97.513C44.2159 97.513 44.1547 97.5241 44.1 97.5463C44.046 97.5679 43.9977 97.6019 43.9551 97.6481C43.9136 97.6931 43.8812 97.7502 43.8578 97.8192C43.835 97.8876 43.8236 97.9669 43.8236 98.0569C43.8236 98.1512 43.8362 98.2322 43.8614 98.3001C43.8872 98.3679 43.9202 98.4231 43.9605 98.4658C44.0025 98.5102 44.0514 98.5432 44.1072 98.5648C44.1637 98.5858 44.2231 98.5963 44.2855 98.5963C44.3714 98.5963 44.4518 98.5816 44.5269 98.5522C44.6019 98.5228 44.6722 98.4787 44.7376 98.4198H44.7502V98.6288ZM45.16 98.726H44.9907V97.3248H45.16V98.726ZM46.2766 98.726H46.1082V98.6189C46.0932 98.6291 46.0728 98.6435 46.047 98.6621C46.0217 98.6801 45.9971 98.6945 45.9731 98.7053C45.9449 98.7191 45.9125 98.7305 45.8759 98.7395C45.8392 98.7491 45.7963 98.7539 45.7471 98.7539C45.6564 98.7539 45.5796 98.7239 45.5166 98.6639C45.4535 98.6038 45.422 98.5273 45.422 98.4342C45.422 98.358 45.4382 98.2965 45.4706 98.2496C45.5036 98.2022 45.5505 98.165 45.6111 98.138C45.6723 98.111 45.7459 98.0926 45.8317 98.083C45.9176 98.0734 46.0097 98.0662 46.1082 98.0614V98.0353C46.1082 97.9969 46.1013 97.9651 46.0875 97.9399C46.0743 97.9146 46.0551 97.8948 46.0299 97.8804C46.0058 97.8666 45.977 97.8573 45.9434 97.8525C45.9098 97.8477 45.8747 97.8453 45.838 97.8453C45.7936 97.8453 45.7441 97.8513 45.6895 97.8633C45.6348 97.8747 45.5784 97.8915 45.5202 97.9137H45.5112V97.7417C45.5442 97.7327 45.5919 97.7228 45.6543 97.712C45.7168 97.7012 45.7783 97.6958 45.8389 97.6958C45.9098 97.6958 45.9713 97.7018 46.0235 97.7138C46.0764 97.7252 46.122 97.745 46.1604 97.7733C46.1982 97.8009 46.2271 97.8366 46.2469 97.8804C46.2667 97.9243 46.2766 97.9786 46.2766 98.0434V98.726ZM46.1082 98.4784V98.1983C46.0566 98.2013 45.9956 98.2058 45.9254 98.2118C45.8558 98.2178 45.8005 98.2265 45.7597 98.2379C45.7111 98.2517 45.6717 98.2734 45.6417 98.3028C45.6117 98.3316 45.5967 98.3715 45.5967 98.4225C45.5967 98.4802 45.6141 98.5237 45.6489 98.5531C45.6838 98.5819 45.7369 98.5963 45.8083 98.5963C45.8678 98.5963 45.9221 98.5849 45.9713 98.5621C46.0205 98.5387 46.0662 98.5108 46.1082 98.4784ZM47.3212 98.436C47.3212 98.5279 47.2831 98.6032 47.2068 98.6621C47.1312 98.7209 47.0276 98.7503 46.8962 98.7503C46.8217 98.7503 46.7533 98.7416 46.6908 98.7242C46.629 98.7062 46.5771 98.6867 46.535 98.6657V98.4757H46.544C46.5975 98.5159 46.6569 98.548 46.7224 98.572C46.7878 98.5954 46.8505 98.6071 46.9106 98.6071C46.985 98.6071 47.0432 98.5951 47.0853 98.5711C47.1273 98.5471 47.1483 98.5093 47.1483 98.4577C47.1483 98.418 47.1369 98.388 47.1141 98.3676C47.0913 98.3472 47.0474 98.3298 46.9826 98.3154C46.9586 98.31 46.9271 98.3037 46.888 98.2965C46.8496 98.2893 46.8145 98.2815 46.7827 98.2731C46.6944 98.2496 46.6317 98.2154 46.5945 98.1704C46.5579 98.1248 46.5395 98.0689 46.5395 98.0029C46.5395 97.9615 46.548 97.9225 46.5648 97.8858C46.5822 97.8492 46.6083 97.8165 46.6431 97.7877C46.6767 97.7595 46.7193 97.7372 46.771 97.721C46.8232 97.7042 46.8814 97.6958 46.9457 97.6958C47.0057 97.6958 47.0663 97.7033 47.1276 97.7183C47.1894 97.7327 47.2407 97.7505 47.2816 97.7715V97.9525H47.2726C47.2293 97.9206 47.1768 97.8939 47.115 97.8723C47.0531 97.8501 46.9925 97.839 46.9331 97.839C46.8712 97.839 46.819 97.851 46.7764 97.875C46.7338 97.8984 46.7124 97.9336 46.7124 97.9804C46.7124 98.0218 46.7254 98.053 46.7512 98.074C46.7764 98.095 46.8172 98.1122 46.8736 98.1254C46.9049 98.1326 46.9397 98.1398 46.9781 98.147C47.0171 98.1542 47.0495 98.1608 47.0754 98.1668C47.154 98.1848 47.2146 98.2157 47.2573 98.2595C47.2999 98.304 47.3212 98.3628 47.3212 98.436ZM48.2829 98.436C48.2829 98.5279 48.2448 98.6032 48.1686 98.6621C48.0929 98.7209 47.9894 98.7503 47.8579 98.7503C47.7835 98.7503 47.715 98.7416 47.6526 98.7242C47.5908 98.7062 47.5388 98.6867 47.4968 98.6657V98.4757H47.5058C47.5592 98.5159 47.6187 98.548 47.6841 98.572C47.7495 98.5954 47.8123 98.6071 47.8723 98.6071C47.9468 98.6071 48.005 98.5951 48.047 98.5711C48.089 98.5471 48.1101 98.5093 48.1101 98.4577C48.1101 98.418 48.0986 98.388 48.0758 98.3676C48.053 98.3472 48.0092 98.3298 47.9444 98.3154C47.9203 98.31 47.8888 98.3037 47.8498 98.2965C47.8114 98.2893 47.7763 98.2815 47.7444 98.2731C47.6562 98.2496 47.5935 98.2154 47.5562 98.1704C47.5196 98.1248 47.5013 98.0689 47.5013 98.0029C47.5013 97.9615 47.5097 97.9225 47.5265 97.8858C47.5439 97.8492 47.57 97.8165 47.6049 97.7877C47.6385 97.7595 47.6811 97.7372 47.7327 97.721C47.785 97.7042 47.8432 97.6958 47.9074 97.6958C47.9675 97.6958 48.0281 97.7033 48.0893 97.7183C48.1512 97.7327 48.2025 97.7505 48.2433 97.7715V97.9525H48.2343C48.1911 97.9206 48.1386 97.8939 48.0767 97.8723C48.0149 97.8501 47.9543 97.839 47.8948 97.839C47.833 97.839 47.7808 97.851 47.7381 97.875C47.6955 97.8984 47.6742 97.9336 47.6742 97.9804C47.6742 98.0218 47.6871 98.053 47.7129 98.074C47.7381 98.095 47.779 98.1122 47.8354 98.1254C47.8666 98.1326 47.9014 98.1398 47.9399 98.147C47.9789 98.1542 48.0113 98.1608 48.0371 98.1668C48.1158 98.1848 48.1764 98.2157 48.219 98.2595C48.2616 98.304 48.2829 98.3628 48.2829 98.436ZM50.1993 98.3136C50.1993 98.3802 50.1866 98.439 50.1614 98.4901C50.1362 98.5411 50.1023 98.5831 50.0597 98.6161C50.0092 98.6558 49.9537 98.684 49.8931 98.7008C49.833 98.7176 49.7565 98.726 49.6634 98.726H49.188V97.3851H49.5851C49.683 97.3851 49.7562 97.3887 49.8048 97.3959C49.8535 97.4032 49.9 97.4182 49.9444 97.441C49.9936 97.4668 50.0294 97.5001 50.0516 97.5409C50.0738 97.5812 50.0849 97.6295 50.0849 97.6859C50.0849 97.7496 50.0687 97.8039 50.0363 97.8489C50.0038 97.8933 49.9606 97.9291 49.9066 97.9561V97.9633C49.9972 97.9819 50.0687 98.0218 50.1209 98.083C50.1731 98.1437 50.1993 98.2205 50.1993 98.3136ZM49.8994 97.7093C49.8994 97.6769 49.894 97.6496 49.8832 97.6274C49.8724 97.6052 49.855 97.5872 49.8309 97.5733C49.8027 97.5571 49.7685 97.5472 49.7283 97.5436C49.6881 97.5394 49.6382 97.5373 49.5788 97.5373H49.3663V97.9246H49.5968C49.6526 97.9246 49.6971 97.9219 49.7301 97.9164C49.7631 97.9104 49.7937 97.8984 49.8219 97.8804C49.8502 97.8624 49.87 97.8393 49.8814 97.8111C49.8934 97.7823 49.8994 97.7484 49.8994 97.7093ZM50.0137 98.3208C50.0137 98.2667 50.0056 98.2238 49.9894 98.192C49.9732 98.1602 49.9438 98.1332 49.9012 98.111C49.8724 98.096 49.8372 98.0863 49.7958 98.0821C49.755 98.0773 49.7052 98.0749 49.6463 98.0749H49.3663V98.5738H49.6022C49.6803 98.5738 49.7442 98.5699 49.794 98.5621C49.8438 98.5537 49.8847 98.5387 49.9165 98.5171C49.9501 98.4937 49.9747 98.467 49.9903 98.4369C50.0059 98.4069 50.0137 98.3682 50.0137 98.3208Z" fill="#2E3A59"/>
<path d="M57.283 98.6288C57.25 98.6432 57.22 98.6567 57.193 98.6693C57.1666 98.6819 57.1317 98.6951 57.0885 98.7089C57.0519 98.7203 57.012 98.7299 56.9687 98.7377C56.9261 98.7461 56.879 98.7503 56.8274 98.7503C56.7301 98.7503 56.6416 98.7368 56.5617 98.7098C56.4825 98.6822 56.4134 98.6393 56.3546 98.581C56.297 98.524 56.2519 98.4517 56.2195 98.364C56.1871 98.2758 56.1709 98.1734 56.1709 98.0569C56.1709 97.9465 56.1865 97.8477 56.2177 97.7607C56.2489 97.6736 56.294 97.6001 56.3528 97.54C56.4098 97.4818 56.4786 97.4374 56.559 97.4068C56.6401 97.3761 56.7298 97.3608 56.8283 97.3608C56.9003 97.3608 56.972 97.3695 57.0435 97.3869C57.1155 97.4044 57.1954 97.435 57.283 97.4788V97.6904H57.2695C57.1957 97.6286 57.1224 97.5836 57.0498 97.5553C56.9771 97.5271 56.8994 97.513 56.8166 97.513C56.7487 97.513 56.6875 97.5241 56.6328 97.5463C56.5788 97.5679 56.5305 97.6019 56.4879 97.6481C56.4464 97.6931 56.414 97.7502 56.3906 97.8192C56.3678 97.8876 56.3564 97.9669 56.3564 98.0569C56.3564 98.1512 56.369 98.2322 56.3942 98.3001C56.42 98.3679 56.453 98.4231 56.4933 98.4658C56.5353 98.5102 56.5842 98.5432 56.6401 98.5648C56.6965 98.5858 56.7559 98.5963 56.8184 98.5963C56.9042 98.5963 56.9847 98.5816 57.0597 98.5522C57.1347 98.5228 57.205 98.4787 57.2704 98.4198H57.283V98.6288ZM57.6928 98.726H57.5235V97.3248H57.6928V98.726ZM58.8094 98.726H58.641V98.6189C58.626 98.6291 58.6056 98.6435 58.5798 98.6621C58.5546 98.6801 58.5299 98.6945 58.5059 98.7053C58.4777 98.7191 58.4453 98.7305 58.4087 98.7395C58.372 98.7491 58.3291 98.7539 58.2799 98.7539C58.1892 98.7539 58.1124 98.7239 58.0494 98.6639C57.9863 98.6038 57.9548 98.5273 57.9548 98.4342C57.9548 98.358 57.971 98.2965 58.0034 98.2496C58.0365 98.2022 58.0833 98.165 58.1439 98.138C58.2052 98.111 58.2787 98.0926 58.3645 98.083C58.4504 98.0734 58.5425 98.0662 58.641 98.0614V98.0353C58.641 97.9969 58.6341 97.9651 58.6203 97.9399C58.6071 97.9146 58.5879 97.8948 58.5627 97.8804C58.5386 97.8666 58.5098 97.8573 58.4762 97.8525C58.4426 97.8477 58.4075 97.8453 58.3708 97.8453C58.3264 97.8453 58.2769 97.8513 58.2223 97.8633C58.1676 97.8747 58.1112 97.8915 58.053 97.9137H58.044V97.7417C58.077 97.7327 58.1247 97.7228 58.1871 97.712C58.2496 97.7012 58.3111 97.6958 58.3717 97.6958C58.4426 97.6958 58.5041 97.7018 58.5564 97.7138C58.6092 97.7252 58.6548 97.745 58.6932 97.7733C58.7311 97.8009 58.7599 97.8366 58.7797 97.8804C58.7995 97.9243 58.8094 97.9786 58.8094 98.0434V98.726ZM58.641 98.4784V98.1983C58.5894 98.2013 58.5284 98.2058 58.4582 98.2118C58.3886 98.2178 58.3333 98.2265 58.2925 98.2379C58.2439 98.2517 58.2046 98.2734 58.1745 98.3028C58.1445 98.3316 58.1295 98.3715 58.1295 98.4225C58.1295 98.4802 58.1469 98.5237 58.1817 98.5531C58.2166 98.5819 58.2697 98.5963 58.3411 98.5963C58.4006 98.5963 58.4549 98.5849 58.5041 98.5621C58.5534 98.5387 58.599 98.5108 58.641 98.4784ZM59.854 98.436C59.854 98.5279 59.8159 98.6032 59.7396 98.6621C59.664 98.7209 59.5604 98.7503 59.429 98.7503C59.3545 98.7503 59.2861 98.7416 59.2236 98.7242C59.1618 98.7062 59.1099 98.6867 59.0678 98.6657V98.4757H59.0769C59.1303 98.5159 59.1897 98.548 59.2552 98.572C59.3206 98.5954 59.3833 98.6071 59.4434 98.6071C59.5178 98.6071 59.576 98.5951 59.6181 98.5711C59.6601 98.5471 59.6811 98.5093 59.6811 98.4577C59.6811 98.418 59.6697 98.388 59.6469 98.3676C59.6241 98.3472 59.5802 98.3298 59.5154 98.3154C59.4914 98.31 59.4599 98.3037 59.4209 98.2965C59.3824 98.2893 59.3473 98.2815 59.3155 98.2731C59.2272 98.2496 59.1645 98.2154 59.1273 98.1704C59.0907 98.1248 59.0724 98.0689 59.0724 98.0029C59.0724 97.9615 59.0808 97.9225 59.0976 97.8858C59.115 97.8492 59.1411 97.8165 59.1759 97.7877C59.2095 97.7595 59.2522 97.7372 59.3038 97.721C59.356 97.7042 59.4142 97.6958 59.4785 97.6958C59.5385 97.6958 59.5992 97.7033 59.6604 97.7183C59.7222 97.7327 59.7736 97.7505 59.8144 97.7715V97.9525H59.8054C59.7621 97.9206 59.7096 97.8939 59.6478 97.8723C59.5859 97.8501 59.5253 97.839 59.4659 97.839C59.404 97.839 59.3518 97.851 59.3092 97.875C59.2666 97.8984 59.2453 97.9336 59.2453 97.9804C59.2453 98.0218 59.2582 98.053 59.284 98.074C59.3092 98.095 59.35 98.1122 59.4064 98.1254C59.4377 98.1326 59.4725 98.1398 59.5109 98.147C59.5499 98.1542 59.5823 98.1608 59.6082 98.1668C59.6868 98.1848 59.7474 98.2157 59.7901 98.2595C59.8327 98.304 59.854 98.3628 59.854 98.436ZM60.8158 98.436C60.8158 98.5279 60.7776 98.6032 60.7014 98.6621C60.6257 98.7209 60.5222 98.7503 60.3907 98.7503C60.3163 98.7503 60.2478 98.7416 60.1854 98.7242C60.1236 98.7062 60.0716 98.6867 60.0296 98.6657V98.4757H60.0386C60.092 98.5159 60.1515 98.548 60.2169 98.572C60.2823 98.5954 60.3451 98.6071 60.4051 98.6071C60.4796 98.6071 60.5378 98.5951 60.5798 98.5711C60.6218 98.5471 60.6429 98.5093 60.6429 98.4577C60.6429 98.418 60.6315 98.388 60.6086 98.3676C60.5858 98.3472 60.542 98.3298 60.4772 98.3154C60.4531 98.31 60.4216 98.3037 60.3826 98.2965C60.3442 98.2893 60.3091 98.2815 60.2772 98.2731C60.189 98.2496 60.1263 98.2154 60.089 98.1704C60.0524 98.1248 60.0341 98.0689 60.0341 98.0029C60.0341 97.9615 60.0425 97.9225 60.0593 97.8858C60.0767 97.8492 60.1028 97.8165 60.1377 97.7877C60.1713 97.7595 60.2139 97.7372 60.2655 97.721C60.3178 97.7042 60.376 97.6958 60.4402 97.6958C60.5003 97.6958 60.5609 97.7033 60.6221 97.7183C60.684 97.7327 60.7353 97.7505 60.7761 97.7715V97.9525H60.7671C60.7239 97.9206 60.6714 97.8939 60.6095 97.8723C60.5477 97.8501 60.4871 97.839 60.4276 97.839C60.3658 97.839 60.3136 97.851 60.2709 97.875C60.2283 97.8984 60.207 97.9336 60.207 97.9804C60.207 98.0218 60.2199 98.053 60.2457 98.074C60.2709 98.095 60.3118 98.1122 60.3682 98.1254C60.3994 98.1326 60.4342 98.1398 60.4727 98.147C60.5117 98.1542 60.5441 98.1608 60.5699 98.1668C60.6486 98.1848 60.7092 98.2157 60.7518 98.2595C60.7944 98.304 60.8158 98.3628 60.8158 98.436ZM62.7564 98.6288C62.7234 98.6432 62.6933 98.6567 62.6663 98.6693C62.6399 98.6819 62.6051 98.6951 62.5619 98.7089C62.5252 98.7203 62.4853 98.7299 62.4421 98.7377C62.3995 98.7461 62.3523 98.7503 62.3007 98.7503C62.2035 98.7503 62.1149 98.7368 62.0351 98.7098C61.9558 98.6822 61.8868 98.6393 61.8279 98.581C61.7703 98.524 61.7253 98.4517 61.6929 98.364C61.6604 98.2758 61.6442 98.1734 61.6442 98.0569C61.6442 97.9465 61.6598 97.8477 61.6911 97.7607C61.7223 97.6736 61.7673 97.6001 61.8261 97.54C61.8832 97.4818 61.9519 97.4374 62.0324 97.4068C62.1134 97.3761 62.2032 97.3608 62.3016 97.3608C62.3737 97.3608 62.4454 97.3695 62.5168 97.3869C62.5889 97.4044 62.6687 97.435 62.7564 97.4788V97.6904H62.7429C62.669 97.6286 62.5958 97.5836 62.5231 97.5553C62.4505 97.5271 62.3728 97.513 62.2899 97.513C62.2221 97.513 62.1608 97.5241 62.1062 97.5463C62.0522 97.5679 62.0038 97.6019 61.9612 97.6481C61.9198 97.6931 61.8874 97.7502 61.864 97.8192C61.8411 97.8876 61.8297 97.9669 61.8297 98.0569C61.8297 98.1512 61.8423 98.2322 61.8676 98.3001C61.8934 98.3679 61.9264 98.4231 61.9666 98.4658C62.0086 98.5102 62.0576 98.5432 62.1134 98.5648C62.1698 98.5858 62.2293 98.5963 62.2917 98.5963C62.3776 98.5963 62.458 98.5816 62.533 98.5522C62.6081 98.5228 62.6783 98.4787 62.7438 98.4198H62.7564V98.6288Z" fill="#2E3A59"/>
<path d="M69.8158 98.6288C69.7828 98.6432 69.7528 98.6567 69.7257 98.6693C69.6993 98.6819 69.6645 98.6951 69.6213 98.7089C69.5847 98.7203 69.5447 98.7299 69.5015 98.7377C69.4589 98.7461 69.4118 98.7503 69.3601 98.7503C69.2629 98.7503 69.1743 98.7368 69.0945 98.7098C69.0152 98.6822 68.9462 98.6393 68.8874 98.581C68.8297 98.524 68.7847 98.4517 68.7523 98.364C68.7199 98.2758 68.7037 98.1734 68.7037 98.0569C68.7037 97.9465 68.7193 97.8477 68.7505 97.7607C68.7817 97.6736 68.8267 97.6001 68.8856 97.54C68.9426 97.4818 69.0113 97.4374 69.0918 97.4068C69.1728 97.3761 69.2626 97.3608 69.361 97.3608C69.4331 97.3608 69.5048 97.3695 69.5763 97.3869C69.6483 97.4044 69.7281 97.435 69.8158 97.4788V97.6904H69.8023C69.7284 97.6286 69.6552 97.5836 69.5826 97.5553C69.5099 97.5271 69.4322 97.513 69.3493 97.513C69.2815 97.513 69.2203 97.5241 69.1656 97.5463C69.1116 97.5679 69.0633 97.6019 69.0206 97.6481C68.9792 97.6931 68.9468 97.7502 68.9234 97.8192C68.9006 97.8876 68.8892 97.9669 68.8892 98.0569C68.8892 98.1512 68.9018 98.2322 68.927 98.3001C68.9528 98.3679 68.9858 98.4231 69.026 98.4658C69.0681 98.5102 69.117 98.5432 69.1728 98.5648C69.2293 98.5858 69.2887 98.5963 69.3511 98.5963C69.437 98.5963 69.5174 98.5816 69.5925 98.5522C69.6675 98.5228 69.7378 98.4787 69.8032 98.4198H69.8158V98.6288ZM70.2255 98.726H70.0562V97.3248H70.2255V98.726ZM71.3422 98.726H71.1738V98.6189C71.1588 98.6291 71.1384 98.6435 71.1125 98.6621C71.0873 98.6801 71.0627 98.6945 71.0387 98.7053C71.0105 98.7191 70.9781 98.7305 70.9414 98.7395C70.9048 98.7491 70.8619 98.7539 70.8127 98.7539C70.722 98.7539 70.6452 98.7239 70.5821 98.6639C70.5191 98.6038 70.4876 98.5273 70.4876 98.4342C70.4876 98.358 70.5038 98.2965 70.5362 98.2496C70.5692 98.2022 70.6161 98.165 70.6767 98.138C70.7379 98.111 70.8115 98.0926 70.8973 98.083C70.9832 98.0734 71.0753 98.0662 71.1738 98.0614V98.0353C71.1738 97.9969 71.1669 97.9651 71.1531 97.9399C71.1399 97.9146 71.1206 97.8948 71.0954 97.8804C71.0714 97.8666 71.0426 97.8573 71.009 97.8525C70.9754 97.8477 70.9402 97.8453 70.9036 97.8453C70.8592 97.8453 70.8097 97.8513 70.755 97.8633C70.7004 97.8747 70.644 97.8915 70.5857 97.9137H70.5767V97.7417C70.6098 97.7327 70.6575 97.7228 70.7199 97.712C70.7824 97.7012 70.8439 97.6958 70.9045 97.6958C70.9754 97.6958 71.0369 97.7018 71.0891 97.7138C71.142 97.7252 71.1876 97.745 71.226 97.7733C71.2638 97.8009 71.2926 97.8366 71.3125 97.8804C71.3323 97.9243 71.3422 97.9786 71.3422 98.0434V98.726ZM71.1738 98.4784V98.1983C71.1222 98.2013 71.0612 98.2058 70.991 98.2118C70.9213 98.2178 70.8661 98.2265 70.8253 98.2379C70.7767 98.2517 70.7373 98.2734 70.7073 98.3028C70.6773 98.3316 70.6623 98.3715 70.6623 98.4225C70.6623 98.4802 70.6797 98.5237 70.7145 98.5531C70.7493 98.5819 70.8025 98.5963 70.8739 98.5963C70.9333 98.5963 70.9877 98.5849 71.0369 98.5621C71.0861 98.5387 71.1318 98.5108 71.1738 98.4784ZM72.3868 98.436C72.3868 98.5279 72.3487 98.6032 72.2724 98.6621C72.1968 98.7209 72.0932 98.7503 71.9617 98.7503C71.8873 98.7503 71.8189 98.7416 71.7564 98.7242C71.6946 98.7062 71.6426 98.6867 71.6006 98.6657V98.4757H71.6096C71.6631 98.5159 71.7225 98.548 71.7879 98.572C71.8534 98.5954 71.9161 98.6071 71.9761 98.6071C72.0506 98.6071 72.1088 98.5951 72.1508 98.5711C72.1929 98.5471 72.2139 98.5093 72.2139 98.4577C72.2139 98.418 72.2025 98.388 72.1797 98.3676C72.1568 98.3472 72.113 98.3298 72.0482 98.3154C72.0242 98.31 71.9927 98.3037 71.9536 98.2965C71.9152 98.2893 71.8801 98.2815 71.8483 98.2731C71.76 98.2496 71.6973 98.2154 71.6601 98.1704C71.6234 98.1248 71.6051 98.0689 71.6051 98.0029C71.6051 97.9615 71.6135 97.9225 71.6303 97.8858C71.6478 97.8492 71.6739 97.8165 71.7087 97.7877C71.7423 97.7595 71.7849 97.7372 71.8366 97.721C71.8888 97.7042 71.947 97.6958 72.0113 97.6958C72.0713 97.6958 72.1319 97.7033 72.1932 97.7183C72.255 97.7327 72.3063 97.7505 72.3472 97.7715V97.9525H72.3382C72.2949 97.9206 72.2424 97.8939 72.1806 97.8723C72.1187 97.8501 72.0581 97.839 71.9987 97.839C71.9368 97.839 71.8846 97.851 71.842 97.875C71.7993 97.8984 71.778 97.9336 71.778 97.9804C71.778 98.0218 71.7909 98.053 71.8168 98.074C71.842 98.095 71.8828 98.1122 71.9392 98.1254C71.9704 98.1326 72.0053 98.1398 72.0437 98.147C72.0827 98.1542 72.1151 98.1608 72.1409 98.1668C72.2196 98.1848 72.2802 98.2157 72.3228 98.2595C72.3655 98.304 72.3868 98.3628 72.3868 98.436ZM73.3485 98.436C73.3485 98.5279 73.3104 98.6032 73.2342 98.6621C73.1585 98.7209 73.055 98.7503 72.9235 98.7503C72.849 98.7503 72.7806 98.7416 72.7182 98.7242C72.6563 98.7062 72.6044 98.6867 72.5624 98.6657V98.4757H72.5714C72.6248 98.5159 72.6842 98.548 72.7497 98.572C72.8151 98.5954 72.8779 98.6071 72.9379 98.6071C73.0123 98.6071 73.0706 98.5951 73.1126 98.5711C73.1546 98.5471 73.1756 98.5093 73.1756 98.4577C73.1756 98.418 73.1642 98.388 73.1414 98.3676C73.1186 98.3472 73.0748 98.3298 73.0099 98.3154C72.9859 98.31 72.9544 98.3037 72.9154 98.2965C72.877 98.2893 72.8418 98.2815 72.81 98.2731C72.7218 98.2496 72.659 98.2154 72.6218 98.1704C72.5852 98.1248 72.5669 98.0689 72.5669 98.0029C72.5669 97.9615 72.5753 97.9225 72.5921 97.8858C72.6095 97.8492 72.6356 97.8165 72.6704 97.7877C72.7041 97.7595 72.7467 97.7372 72.7983 97.721C72.8505 97.7042 72.9088 97.6958 72.973 97.6958C73.0331 97.6958 73.0937 97.7033 73.1549 97.7183C73.2168 97.7327 73.2681 97.7505 73.3089 97.7715V97.9525H73.2999C73.2567 97.9206 73.2041 97.8939 73.1423 97.8723C73.0805 97.8501 73.0198 97.839 72.9604 97.839C72.8986 97.839 72.8463 97.851 72.8037 97.875C72.7611 97.8984 72.7398 97.9336 72.7398 97.9804C72.7398 98.0218 72.7527 98.053 72.7785 98.074C72.8037 98.095 72.8445 98.1122 72.901 98.1254C72.9322 98.1326 72.967 98.1398 73.0054 98.147C73.0445 98.1542 73.0769 98.1608 73.1027 98.1668C73.1813 98.1848 73.242 98.2157 73.2846 98.2595C73.3272 98.304 73.3485 98.3628 73.3485 98.436ZM75.3864 98.0569C75.3864 98.1788 75.3597 98.2893 75.3063 98.3883C75.2534 98.4874 75.1829 98.5642 75.0946 98.6189C75.0334 98.6567 74.965 98.684 74.8893 98.7008C74.8143 98.7176 74.7152 98.726 74.5921 98.726H74.2536V97.3851H74.5885C74.7194 97.3851 74.8233 97.3947 74.9001 97.414C74.9776 97.4326 75.043 97.4584 75.0964 97.4914C75.1877 97.5484 75.2588 97.6244 75.3099 97.7192C75.3609 97.8141 75.3864 97.9267 75.3864 98.0569ZM75.2 98.0542C75.2 97.9492 75.1817 97.8606 75.1451 97.7886C75.1084 97.7165 75.0538 97.6598 74.9812 97.6184C74.9283 97.5884 74.8722 97.5676 74.8128 97.5562C74.7533 97.5442 74.6822 97.5382 74.5994 97.5382H74.4319V98.5729H74.5994C74.6852 98.5729 74.7599 98.5666 74.8236 98.554C74.8878 98.5414 74.9467 98.518 75.0001 98.4838C75.0667 98.4411 75.1166 98.385 75.1496 98.3154C75.1832 98.2457 75.2 98.1587 75.2 98.0542Z" fill="#2E3A59"/>
<path d="M82.3486 98.6288C82.3156 98.6432 82.2855 98.6567 82.2585 98.6693C82.2321 98.6819 82.1973 98.6951 82.1541 98.7089C82.1174 98.7203 82.0775 98.7299 82.0343 98.7377C81.9917 98.7461 81.9445 98.7503 81.8929 98.7503C81.7957 98.7503 81.7071 98.7368 81.6273 98.7098C81.548 98.6822 81.479 98.6393 81.4201 98.581C81.3625 98.524 81.3175 98.4517 81.2851 98.364C81.2526 98.2758 81.2364 98.1734 81.2364 98.0569C81.2364 97.9465 81.252 97.8477 81.2833 97.7607C81.3145 97.6736 81.3595 97.6001 81.4183 97.54C81.4754 97.4818 81.5441 97.4374 81.6246 97.4068C81.7056 97.3761 81.7954 97.3608 81.8938 97.3608C81.9659 97.3608 82.0376 97.3695 82.109 97.3869C82.1811 97.4044 82.2609 97.435 82.3486 97.4788V97.6904H82.3351C82.2612 97.6286 82.188 97.5836 82.1153 97.5553C82.0427 97.5271 81.965 97.513 81.8821 97.513C81.8143 97.513 81.753 97.5241 81.6984 97.5463C81.6444 97.5679 81.596 97.6019 81.5534 97.6481C81.512 97.6931 81.4796 97.7502 81.4562 97.8192C81.4333 97.8876 81.4219 97.9669 81.4219 98.0569C81.4219 98.1512 81.4345 98.2322 81.4598 98.3001C81.4856 98.3679 81.5186 98.4231 81.5588 98.4658C81.6008 98.5102 81.6498 98.5432 81.7056 98.5648C81.762 98.5858 81.8215 98.5963 81.8839 98.5963C81.9698 98.5963 82.0502 98.5816 82.1252 98.5522C82.2003 98.5228 82.2705 98.4787 82.336 98.4198H82.3486V98.6288ZM82.7583 98.726H82.589V97.3248H82.7583V98.726ZM83.875 98.726H83.7066V98.6189C83.6915 98.6291 83.6711 98.6435 83.6453 98.6621C83.6201 98.6801 83.5955 98.6945 83.5715 98.7053C83.5433 98.7191 83.5108 98.7305 83.4742 98.7395C83.4376 98.7491 83.3947 98.7539 83.3454 98.7539C83.2548 98.7539 83.178 98.7239 83.1149 98.6639C83.0519 98.6038 83.0204 98.5273 83.0204 98.4342C83.0204 98.358 83.0366 98.2965 83.069 98.2496C83.102 98.2022 83.1488 98.165 83.2095 98.138C83.2707 98.111 83.3442 98.0926 83.4301 98.083C83.5159 98.0734 83.6081 98.0662 83.7066 98.0614V98.0353C83.7066 97.9969 83.6997 97.9651 83.6858 97.9399C83.6726 97.9146 83.6534 97.8948 83.6282 97.8804C83.6042 97.8666 83.5754 97.8573 83.5418 97.8525C83.5081 97.8477 83.473 97.8453 83.4364 97.8453C83.392 97.8453 83.3424 97.8513 83.2878 97.8633C83.2332 97.8747 83.1768 97.8915 83.1185 97.9137H83.1095V97.7417C83.1425 97.7327 83.1903 97.7228 83.2527 97.712C83.3151 97.7012 83.3767 97.6958 83.4373 97.6958C83.5081 97.6958 83.5697 97.7018 83.6219 97.7138C83.6747 97.7252 83.7204 97.745 83.7588 97.7733C83.7966 97.8009 83.8254 97.8366 83.8452 97.8804C83.865 97.9243 83.875 97.9786 83.875 98.0434V98.726ZM83.7066 98.4784V98.1983C83.6549 98.2013 83.594 98.2058 83.5238 98.2118C83.4541 98.2178 83.3989 98.2265 83.3581 98.2379C83.3094 98.2517 83.2701 98.2734 83.2401 98.3028C83.2101 98.3316 83.1951 98.3715 83.1951 98.4225C83.1951 98.4802 83.2125 98.5237 83.2473 98.5531C83.2821 98.5819 83.3352 98.5963 83.4067 98.5963C83.4661 98.5963 83.5204 98.5849 83.5697 98.5621C83.6189 98.5387 83.6645 98.5108 83.7066 98.4784ZM84.9196 98.436C84.9196 98.5279 84.8814 98.6032 84.8052 98.6621C84.7295 98.7209 84.626 98.7503 84.4945 98.7503C84.4201 98.7503 84.3516 98.7416 84.2892 98.7242C84.2274 98.7062 84.1754 98.6867 84.1334 98.6657V98.4757H84.1424C84.1958 98.5159 84.2553 98.548 84.3207 98.572C84.3861 98.5954 84.4489 98.6071 84.5089 98.6071C84.5834 98.6071 84.6416 98.5951 84.6836 98.5711C84.7256 98.5471 84.7467 98.5093 84.7467 98.4577C84.7467 98.418 84.7352 98.388 84.7124 98.3676C84.6896 98.3472 84.6458 98.3298 84.581 98.3154C84.5569 98.31 84.5254 98.3037 84.4864 98.2965C84.448 98.2893 84.4129 98.2815 84.381 98.2731C84.2928 98.2496 84.2301 98.2154 84.1928 98.1704C84.1562 98.1248 84.1379 98.0689 84.1379 98.0029C84.1379 97.9615 84.1463 97.9225 84.1631 97.8858C84.1805 97.8492 84.2066 97.8165 84.2415 97.7877C84.2751 97.7595 84.3177 97.7372 84.3693 97.721C84.4216 97.7042 84.4798 97.6958 84.544 97.6958C84.6041 97.6958 84.6647 97.7033 84.7259 97.7183C84.7878 97.7327 84.8391 97.7505 84.8799 97.7715V97.9525H84.8709C84.8277 97.9206 84.7752 97.8939 84.7133 97.8723C84.6515 97.8501 84.5909 97.839 84.5314 97.839C84.4696 97.839 84.4174 97.851 84.3747 97.875C84.3321 97.8984 84.3108 97.9336 84.3108 97.9804C84.3108 98.0218 84.3237 98.053 84.3495 98.074C84.3747 98.095 84.4156 98.1122 84.472 98.1254C84.5032 98.1326 84.538 98.1398 84.5765 98.147C84.6155 98.1542 84.6479 98.1608 84.6737 98.1668C84.7524 98.1848 84.813 98.2157 84.8556 98.2595C84.8982 98.304 84.9196 98.3628 84.9196 98.436ZM85.8813 98.436C85.8813 98.5279 85.8432 98.6032 85.7669 98.6621C85.6913 98.7209 85.5877 98.7503 85.4563 98.7503C85.3818 98.7503 85.3134 98.7416 85.2509 98.7242C85.1891 98.7062 85.1372 98.6867 85.0952 98.6657V98.4757H85.1042C85.1576 98.5159 85.217 98.548 85.2825 98.572C85.3479 98.5954 85.4106 98.6071 85.4707 98.6071C85.5451 98.6071 85.6033 98.5951 85.6454 98.5711C85.6874 98.5471 85.7084 98.5093 85.7084 98.4577C85.7084 98.418 85.697 98.388 85.6742 98.3676C85.6514 98.3472 85.6076 98.3298 85.5427 98.3154C85.5187 98.31 85.4872 98.3037 85.4482 98.2965C85.4097 98.2893 85.3746 98.2815 85.3428 98.2731C85.2545 98.2496 85.1918 98.2154 85.1546 98.1704C85.118 98.1248 85.0997 98.0689 85.0997 98.0029C85.0997 97.9615 85.1081 97.9225 85.1249 97.8858C85.1423 97.8492 85.1684 97.8165 85.2032 97.7877C85.2368 97.7595 85.2795 97.7372 85.3311 97.721C85.3833 97.7042 85.4416 97.6958 85.5058 97.6958C85.5658 97.6958 85.6265 97.7033 85.6877 97.7183C85.7495 97.7327 85.8009 97.7505 85.8417 97.7715V97.9525H85.8327C85.7895 97.9206 85.7369 97.8939 85.6751 97.8723C85.6133 97.8501 85.5526 97.839 85.4932 97.839C85.4313 97.839 85.3791 97.851 85.3365 97.875C85.2939 97.8984 85.2726 97.9336 85.2726 97.9804C85.2726 98.0218 85.2855 98.053 85.3113 98.074C85.3365 98.095 85.3773 98.1122 85.4338 98.1254C85.465 98.1326 85.4998 98.1398 85.5382 98.147C85.5772 98.1542 85.6097 98.1608 85.6355 98.1668C85.7141 98.1848 85.7747 98.2157 85.8174 98.2595C85.86 98.304 85.8813 98.3628 85.8813 98.436ZM87.6697 98.726H86.7863V97.3851H87.6697V97.5436H86.9646V97.911H87.6697V98.0695H86.9646V98.5675H87.6697V98.726Z" fill="#2E3A59"/>
<defs>
<filter id="filter0_d_215_156" x="0.740009" y="0.351338" width="133.314" height="118.56" filterUnits="userSpaceOnUse" color-interpolation-filters="sRGB">
<feFlood flood-opacity="0" result="BackgroundImageFix"/>
<feColorMatrix in="SourceAlpha" type="matrix" values="0 0 0 0 0 0 0 0 0 0 0 0 0 0 0 0 0 0 127 0" result="hardAlpha"/>
<feMorphology radius="3.42506" operator="erode" in="SourceAlpha" result="effect1_dropShadow_215_156"/>
<feOffset dy="1.05386"/>
<feGaussianBlur stdDeviation="6.05972"/>
<feComposite in2="hardAlpha" operator="out"/>
<feColorMatrix type="matrix" values="0 0 0 0 0 0 0 0 0 0 0 0 0 0 0 0 0 0 0.17 0"/>
<feBlend mode="normal" in2="BackgroundImageFix" result="effect1_dropShadow_215_156"/>
<feBlend mode="normal" in="SourceGraphic" in2="effect1_dropShadow_215_156" result="shape"/>
</filter>
<filter id="filter1_b_215_156" x="28.2629" y="60.1581" width="14.9134" height="34.514" filterUnits="userSpaceOnUse" color-interpolation-filters="sRGB">
<feFlood flood-opacity="0" result="BackgroundImageFix"/>
<feGaussianBlur in="BackgroundImageFix" stdDeviation="0.526932"/>
<feComposite in2="SourceAlpha" operator="in" result="effect1_backgroundBlur_215_156"/>
<feBlend mode="normal" in="SourceGraphic" in2="effect1_backgroundBlur_215_156" result="shape"/>
</filter>
<filter id="filter2_b_215_156" x="75.7787" y="73.8583" width="15.2504" height="20.8138" filterUnits="userSpaceOnUse" color-interpolation-filters="sRGB">
<feFlood flood-opacity="0" result="BackgroundImageFix"/>
<feGaussianBlur in="BackgroundImageFix" stdDeviation="0.526932"/>
<feComposite in2="SourceAlpha" operator="in" result="effect1_backgroundBlur_215_156"/>
<feBlend mode="normal" in="SourceGraphic" in2="effect1_backgroundBlur_215_156" result="shape"/>
</filter>
<filter id="filter3_b_215_156" x="44.1016" y="69.1159" width="15.2504" height="25.5562" filterUnits="userSpaceOnUse" color-interpolation-filters="sRGB">
<feFlood flood-opacity="0" result="BackgroundImageFix"/>
<feGaussianBlur in="BackgroundImageFix" stdDeviation="0.526932"/>
<feComposite in2="SourceAlpha" operator="in" result="effect1_backgroundBlur_215_156"/>
<feBlend mode="normal" in="SourceGraphic" in2="effect1_backgroundBlur_215_156" result="shape"/>
</filter>
<filter id="filter4_b_215_156" x="91.9543" y="34.8653" width="14.9134" height="59.8068" filterUnits="userSpaceOnUse" color-interpolation-filters="sRGB">
<feFlood flood-opacity="0" result="BackgroundImageFix"/>
<feGaussianBlur in="BackgroundImageFix" stdDeviation="0.526932"/>
<feComposite in2="SourceAlpha" operator="in" result="effect1_backgroundBlur_215_156"/>
<feBlend mode="normal" in="SourceGraphic" in2="effect1_backgroundBlur_215_156" result="shape"/>
</filter>
<filter id="filter5_b_215_156" x="60.2771" y="45.6674" width="14.5764" height="49.0047" filterUnits="userSpaceOnUse" color-interpolation-filters="sRGB">
<feFlood flood-opacity="0" result="BackgroundImageFix"/>
<feGaussianBlur in="BackgroundImageFix" stdDeviation="0.526932"/>
<feComposite in2="SourceAlpha" operator="in" result="effect1_backgroundBlur_215_156"/>
<feBlend mode="normal" in="SourceGraphic" in2="effect1_backgroundBlur_215_156" result="shape"/>
</filter>
<filter id="filter6_b_215_156" x="70.681" y="53.8349" width="24.4349" height="13.7003" filterUnits="userSpaceOnUse" color-interpolation-filters="sRGB">
<feFlood flood-opacity="0" result="BackgroundImageFix"/>
<feGaussianBlur in="BackgroundImageFix" stdDeviation="1.05386"/>
<feComposite in2="SourceAlpha" operator="in" result="effect1_backgroundBlur_215_156"/>
<feBlend mode="normal" in="SourceGraphic" in2="effect1_backgroundBlur_215_156" result="shape"/>
</filter>
</defs>
</svg>
